<?xml version="1.0" encoding="UTF-8"?>
<svg id="Layer_1" data-name="Layer 1" xmlns="http://www.w3.org/2000/svg" xmlns:xlink="http://www.w3.org/1999/xlink" viewBox="0 0 34.9 34.9">
  <defs>
    <style>
      .cls-1 {
        fill: #0a0a0a;
      }

      .cls-2 {
        stroke-width: 1.42px;
      }

      .cls-2, .cls-3 {
        stroke: #f8f8f8;
        stroke-miterlimit: 10;
      }

      .cls-2, .cls-3, .cls-4 {
        fill: none;
      }

      .cls-5 {
        clip-path: url(#clippath-1);
      }

      .cls-6 {
        clip-path: url(#clippath);
      }

      .cls-7 {
        fill: #8d671b;
      }
    </style>
    <clipPath id="clippath">
      <path class="cls-4" d="m1.31,2.07v30.75h32.42V2.07H1.31Zm15.19,11.05c0-.76,0-1.38.01-1.78h-.25v-1.36c-1.15-.44-1.98-1.55-1.98-2.86,0-1.69,1.38-3.07,3.07-3.07s3.07,1.38,3.07,3.07c0,1.31-.83,2.41-1.98,2.84v1.38h-.25c0,.4,0,1.02.01,1.78,1.17.03,2.39.18,3.56.52.15-.45.57-.78,1.07-.78.63,0,1.14.51,1.14,1.14s-.51,1.14-1.14,1.14c-.48,0-.89-.3-1.06-.72-1.05.31-2.3.41-3.56.39-2.57,2.15-6.01,10.68-3.84,10.71,2.52.71,10.39-2.08,10.39-2.08,0,0-.49-.14-1.04-.12,0,0,.31-1.62,3.04-3.41,1.5,1.46.46,4.74.46,4.74-.34-.45-1.04-.79-1.04-.79-.4,1.06-.6,2.45-2.43,4.04-1.83,1.59-3.97,1.28-6.22,3.91l-.17.24-.17-.24c-2.25-2.63-4.39-2.32-6.22-3.91-1.83-1.59,1.25-2.73.85-3.79m-1.86-.66s1.38,3.43,3.91,2.72c2.17-.03,2.55-6.82,2.64-11.35-1.27.02-2.54-.08-3.61-.39-.17.42-.58.72-1.06.72"/>
    </clipPath>
    <clipPath id="clippath-1">
      <path class="cls-4" d="m17.53,34.36C8.2,34.36.61,26.77.61,17.45S8.2.54,17.53.54s16.91,7.59,16.91,16.91-7.59,16.91-16.91,16.91Zm0-32.82C8.75,1.54,1.61,8.67,1.61,17.45s7.14,15.91,15.91,15.91,15.91-7.14,15.91-15.91S26.3,1.54,17.53,1.54Z"/>
    </clipPath>
  </defs>
  <rect id="bg" class="cls-1" x="-2.18" y="-1.25" width="39.42" height="37.39"/>
  <circle id="bg-circle" class="cls-1" cx="17.53" cy="17.45" r="17.4"/>
  <path id="anchor" class="cls-7" d="m26.77,19.91c-2.73,1.79-3.04,3.41-3.04,3.41.55-.02,1.04.12,1.04.12,0,0-1.38,3.43-3.91,2.72-2.17-.03-2.55-6.81-2.64-11.35,1.26.01,2.5-.08,3.56-.39.17.42.58.72,1.06.72.63,0,1.14-.51,1.14-1.14s-.51-1.14-1.14-1.14c-.5,0-.92.33-1.07.78-1.17-.34-2.39-.49-3.56-.52,0-.76,0-1.38-.01-1.78h.25v-1.38c1.15-.44,1.98-1.54,1.98-2.84,0-1.69-1.38-3.07-3.07-3.07s-3.07,1.38-3.07,3.07c0,1.31.82,2.42,1.98,2.86v1.36h.25c0,.4,0,1.02-.01,1.78-1.19.02-2.42.17-3.62.52-.15-.45-.57-.78-1.07-.78-.63,0-1.14.51-1.14,1.14s.51,1.14,1.14,1.14c.48,0,.89-.3,1.06-.72,1.07.32,2.34.41,3.61.39-.08,4.54-.47,11.32-2.64,11.35-2.52.71-3.91-2.72-3.91-2.72,0,0,.49-.14,1.04-.12,0,0-.31-1.62-3.04-3.41-1.5,1.46-.46,4.74-.46,4.74.34-.45,1.04-.79,1.04-.79.4,1.06.6,2.45,2.43,4.04,1.83,1.59,3.97,1.28,6.22,3.91l.17.24.17-.24c2.25-2.63,4.39-2.32,6.22-3.91,1.83-1.59,2.03-2.98,2.43-4.04,0,0,.7.34,1.04.79,0,0,1.04-3.29-.46-4.74Zm-10.5-11.74v.69c-.59-.37-.98-1.01-.98-1.75,0-1.14.93-2.07,2.07-2.07s2.07.93,2.07,2.07c0,.74-.39,1.38-.98,1.75v-.69s-.52,0-1.09,0h-1.09Z"/>
  <g class="cls-6">
    <path id="rope" class="cls-2" d="m27.24,22.6c1.69-9.37-3.39-20.82-4.59-15.32-.72,3.28-1.78,16.72-3.27,16.61-3.17-.06-22.03-38.42-9.26,5.47"/>
  </g>
  <circle id="outer-circle" class="cls-3" cx="17.53" cy="17.45" r="16.41"/>
  <g id="rope-lines">
    <g class="cls-5">
      <g id="lines">
        <path id="line" class="cls-7" d="m14.09,32.76c.38.07,1.17.61,1.21,1.84l-.28-.05c-.05-1.56-1.32-1.87-1.32-1.87,0,0,.27.06.39.08Z"/>
        <path id="line-2" data-name="line" class="cls-7" d="m12.19,32.2c.37.12,1.08.75.97,1.98l-.27-.09c.15-1.55-1.07-2.02-1.07-2.02,0,0,.26.09.38.13Z"/>
        <path id="line-3" data-name="line" class="cls-7" d="m10.37,31.42c.35.16.98.88.72,2.08l-.26-.12c.34-1.52-.81-2.14-.81-2.14,0,0,.25.12.36.17Z"/>
        <path id="line-4" data-name="line" class="cls-7" d="m8.67,30.41c.32.21.86,1,.45,2.16l-.24-.15c.53-1.46-.53-2.22-.53-2.22,0,0,.23.16.33.22Z"/>
        <path id="line-5" data-name="line" class="cls-7" d="m7.11,29.19c.3.24.73,1.1.17,2.2l-.22-.18c.71-1.39-.25-2.27-.25-2.27,0,0,.21.18.3.26Z"/>
        <path id="line-6" data-name="line" class="cls-7" d="m5.72,27.79c.26.28.58,1.18-.11,2.2l-.2-.21c.88-1.29.04-2.28.04-2.28,0,0,.19.21.27.29Z"/>
        <path id="line-7" data-name="line" class="cls-7" d="m4.51,26.22c.23.31.43,1.24-.38,2.17l-.17-.23c1.03-1.17.32-2.26.32-2.26,0,0,.16.23.23.32Z"/>
        <path id="line-8" data-name="line" class="cls-7" d="m3.51,24.51c.19.34.27,1.29-.65,2.11l-.14-.25c1.17-1.03.61-2.2.61-2.2,0,0,.13.25.18.35Z"/>
        <path id="line-9" data-name="line" class="cls-7" d="m2.73,22.69c.14.36.11,1.31-.91,2.01l-.11-.27c1.29-.87.88-2.11.88-2.11,0,0,.1.26.14.37Z"/>
        <path id="line-10" data-name="line" class="cls-7" d="m2.19,20.79c.1.37-.06,1.31-1.16,1.88l-.07-.28c1.39-.7,1.14-1.98,1.14-1.98,0,0,.06.27.09.39Z"/>
        <path id="line-11" data-name="line" class="cls-7" d="m1.89,18.83c.05.38-.23,1.3-1.38,1.72l-.04-.29c1.47-.52,1.38-1.82,1.38-1.82,0,0,.03.28.04.39Z"/>
        <path id="line-12" data-name="line" class="cls-7" d="m1.84,16.85c0,.38-.39,1.26-1.59,1.53v-.29c1.52-.33,1.6-1.64,1.6-1.64,0,0,0,.28,0,.4Z"/>
        <path id="line-13" data-name="line" class="cls-7" d="m2.04,14.89c-.05.38-.54,1.2-1.77,1.32l.04-.29c1.55-.14,1.79-1.42,1.79-1.42,0,0-.04.28-.06.39Z"/>
        <path id="line-14" data-name="line" class="cls-7" d="m2.49,12.96c-.1.37-.69,1.12-1.92,1.08l.07-.28c1.56.06,1.95-1.19,1.95-1.19,0,0-.08.27-.11.38Z"/>
        <path id="line-15" data-name="line" class="cls-7" d="m3.17,11.1c-.14.36-.82,1.03-2.04.83l.11-.27c1.54.25,2.09-.93,2.09-.93,0,0-.11.26-.15.37Z"/>
        <path id="line-16" data-name="line" class="cls-7" d="m4.09,9.35c-.19.34-.95.91-2.13.57l.14-.25c1.49.44,2.19-.66,2.19-.66,0,0-.14.24-.2.34Z"/>
        <path id="line-17" data-name="line" class="cls-7" d="m5.21,7.72c-.23.31-1.05.79-2.18.3l.17-.23c1.42.63,2.25-.38,2.25-.38,0,0-.17.22-.24.32Z"/>
        <path id="line-18" data-name="line" class="cls-7" d="m6.53,6.25c-.26.28-1.15.65-2.2.02l.2-.21c1.33.8,2.28-.09,2.28-.09,0,0-.2.2-.28.28Z"/>
        <path id="line-19" data-name="line" class="cls-7" d="m8.03,4.95c-.3.24-1.22.5-2.19-.26l.22-.18c1.22.96,2.28.19,2.28.19,0,0-.22.17-.31.25Z"/>
        <path id="line-20" data-name="line" class="cls-7" d="m9.68,3.86c-.33.2-1.27.34-2.14-.53l.24-.15c1.09,1.11,2.23.48,2.23.48,0,0-.24.14-.34.2Z"/>
        <path id="line-21" data-name="line" class="cls-7" d="m11.45,2.98c-.35.16-1.3.18-2.05-.8l.26-.12c.94,1.24,2.16.76,2.16.76,0,0-.26.11-.36.16Z"/>
        <path id="line-22" data-name="line" class="cls-7" d="m13.32,2.33c-.37.12-1.32.01-1.94-1.05l.27-.09c.78,1.35,2.04,1.02,2.04,1.02,0,0-.27.08-.38.11Z"/>
        <path id="line-23" data-name="line" class="cls-7" d="m15.26,1.92c-.38.07-1.31-.15-1.79-1.28l.28-.05c.6,1.44,1.9,1.27,1.9,1.27,0,0-.28.04-.39.06Z"/>
        <path id="line-24" data-name="line" class="cls-7" d="m17.23,1.76c-.38.02-1.28-.31-1.62-1.5l.29-.02c.42,1.5,1.72,1.5,1.72,1.5,0,0-.28,0-.4.01Z"/>
        <path id="line-25" data-name="line" class="cls-7" d="m19.2,1.84c-.38-.03-1.23-.47-1.41-1.69l.29.02c.23,1.54,1.52,1.71,1.52,1.71,0,0-.28-.03-.4-.04Z"/>
        <path id="line-26" data-name="line" class="cls-7" d="m21.15,2.18c-.38-.08-1.16-.62-1.19-1.85l.28.06c.03,1.56,1.29,1.88,1.29,1.88,0,0-.27-.06-.39-.08Z"/>
        <path id="line-27" data-name="line" class="cls-7" d="m23.05,2.76c-.36-.12-1.07-.76-.95-1.99l.27.09c-.17,1.55,1.05,2.03,1.05,2.03,0,0-.26-.1-.37-.13Z"/>
        <path id="line-28" data-name="line" class="cls-7" d="m24.85,3.57c-.35-.17-.97-.89-.69-2.09l.26.13c-.36,1.52.78,2.15.78,2.15,0,0-.25-.13-.35-.18Z"/>
        <path id="line-29" data-name="line" class="cls-7" d="m26.54,4.6c-.32-.21-.85-1.01-.42-2.16l.24.16c-.55,1.46.51,2.23.51,2.23,0,0-.23-.16-.33-.22Z"/>
        <path id="line-30" data-name="line" class="cls-7" d="m28.08,5.84c-.29-.25-.71-1.11-.14-2.2l.22.19c-.73,1.38.22,2.27.22,2.27,0,0-.21-.19-.3-.26Z"/>
        <path id="line-31" data-name="line" class="cls-7" d="m29.46,7.26c-.26-.28-.57-1.19.13-2.2l.19.21c-.89,1.28-.07,2.28-.07,2.28,0,0-.18-.21-.26-.3Z"/>
        <path id="line-32" data-name="line" class="cls-7" d="m30.65,8.84c-.22-.31-.41-1.25.41-2.17l.17.24c-1.05,1.15-.35,2.26-.35,2.26,0,0-.16-.23-.22-.33Z"/>
        <path id="line-33" data-name="line" class="cls-7" d="m31.63,10.56c-.18-.34-.25-1.29.68-2.1l.14.25c-1.18,1.01-.63,2.2-.63,2.2,0,0-.13-.25-.18-.35Z"/>
        <path id="line-34" data-name="line" class="cls-7" d="m32.38,12.39c-.14-.36-.09-1.31.94-1.99l.1.27c-1.3.86-.9,2.1-.9,2.1,0,0-.09-.26-.13-.37Z"/>
        <path id="line-35" data-name="line" class="cls-7" d="m32.9,14.3c-.09-.37.08-1.31,1.18-1.86l.07.28c-1.4.68-1.16,1.97-1.16,1.97,0,0-.06-.27-.09-.39Z"/>
        <path id="line-36" data-name="line" class="cls-7" d="m33.17,16.26c-.04-.38.24-1.29,1.4-1.7l.03.29c-1.47.5-1.4,1.81-1.4,1.81,0,0-.02-.28-.04-.39Z"/>
        <path id="line-37" data-name="line" class="cls-7" d="m33.2,18.24c0-.38.4-1.25,1.61-1.51v.29c-1.53.31-1.62,1.62-1.62,1.62,0,0,.01-.28.01-.4Z"/>
        <path id="line-38" data-name="line" class="cls-7" d="m32.98,20.2c.05-.38.56-1.19,1.78-1.29l-.04.29c-1.55.12-1.81,1.4-1.81,1.4,0,0,.05-.28.06-.39Z"/>
        <path id="line-39" data-name="line" class="cls-7" d="m32.51,22.12c.1-.37.7-1.11,1.93-1.06l-.08.28c-1.56-.08-1.97,1.16-1.97,1.16,0,0,.08-.27.11-.38Z"/>
        <path id="line-40" data-name="line" class="cls-7" d="m31.8,23.97c.15-.35.84-1.02,2.05-.81l-.11.27c-1.53-.27-2.1.9-2.1.9,0,0,.11-.26.16-.36Z"/>
        <path id="line-41" data-name="line" class="cls-7" d="m30.86,25.72c.19-.33.96-.9,2.14-.54l-.14.25c-1.49-.46-2.2.63-2.2.63,0,0,.14-.24.2-.34Z"/>
        <path id="line-42" data-name="line" class="cls-7" d="m29.72,27.33c.23-.31,1.06-.77,2.19-.27l-.17.23c-1.42-.65-2.26.35-2.26.35,0,0,.17-.22.24-.31Z"/>
        <path id="line-43" data-name="line" class="cls-7" d="m28.38,28.78c.27-.28,1.15-.63,2.2,0l-.2.21c-1.32-.82-2.28.06-2.28.06,0,0,.2-.2.28-.28Z"/>
        <path id="line-44" data-name="line" class="cls-7" d="m26.87,30.06c.3-.24,1.22-.48,2.19.29l-.23.18c-1.21-.98-2.27-.22-2.27-.22,0,0,.22-.17.31-.24Z"/>
        <path id="line-45" data-name="line" class="cls-7" d="m25.21,31.13c.33-.2,1.28-.33,2.13.56l-.25.15c-1.08-1.12-2.23-.51-2.23-.51,0,0,.24-.14.34-.2Z"/>
        <path id="line-46" data-name="line" class="cls-7" d="m23.42,31.99c.35-.16,1.31-.16,2.04.82l-.26.12c-.93-1.25-2.15-.78-2.15-.78,0,0,.26-.11.36-.16Z"/>
        <path id="line-47" data-name="line" class="cls-7" d="m21.55,32.62c.37-.11,1.32,0,1.93,1.07l-.28.08c-.76-1.36-2.03-1.05-2.03-1.05,0,0,.27-.07.38-.11Z"/>
        <path id="line-48" data-name="line" class="cls-7" d="m19.6,33c.38-.06,1.31.17,1.77,1.31l-.28.05c-.59-1.44-1.88-1.29-1.88-1.29,0,0,.28-.04.39-.06Z"/>
        <path id="line-49" data-name="line" class="cls-7" d="m17.63,33.14c.38-.02,1.27.33,1.6,1.52h-.29c-.4-1.49-1.71-1.51-1.71-1.51,0,0,.28,0,.4,0Z"/>
        <path id="line-50" data-name="line" class="cls-7" d="m15.65,33.03c.38.03,1.22.49,1.39,1.71l-.29-.02c-.21-1.54-1.5-1.72-1.5-1.72,0,0,.28.03.39.04Z"/>
      </g>
    </g>
  </g>
  <g id="M_lines" data-name="M lines">
    <path class="cls-7" d="m8.91,27.6c.02-.34.91-.49,1.35-.42.02,0,.06.28.06.28,0,0-.84-.1-1.38.27-.02-.03-.04-.07-.03-.13Z"/>
    <path class="cls-7" d="m7.78,23.43c.04-.33.93-.47,1.36-.4.02,0,.06.28.06.28,0,0-.84-.11-1.39.25-.02-.03-.03-.08-.03-.13Z"/>
    <path class="cls-7" d="m6.84,19.84c.06-.31.94-.44,1.37-.37.02.01.05.27.05.28-.02.02-.85-.11-1.39.22-.02-.04-.03-.08-.03-.13Z"/>
    <path class="cls-7" d="m6.12,16.81c.08-.3.96-.41,1.38-.33.02.02.05.27.05.28-.02.02-.85-.12-1.4.19-.02-.04-.03-.08-.03-.14Z"/>
    <path class="cls-7" d="m5.6,14.29c.1-.29.97-.37,1.39-.28.02.02.04.27.04.28-.03.03-.85-.14-1.4.14-.02-.04-.03-.09-.02-.14Z"/>
    <path class="cls-7" d="m5.3,12.32c.12-.27,1-.31,1.4-.21.02.02.02.27.02.28-.04.03-.85-.18-1.41.08-.01-.04-.02-.09-.02-.14Z"/>
    <path class="cls-7" d="m5.14,10.72c.15-.25,1.02-.22,1.41-.1.02.03,0,.27,0,.28-.06.04-.84-.24-1.41-.03,0-.05-.02-.09,0-.15Z"/>
    <path class="cls-7" d="m5.13,9.43c.2-.21,1.05-.06,1.41.11.01.04-.04.27-.04.28-.07.03-.81-.35-1.39-.23,0-.05,0-.1.01-.15Z"/>
    <path class="cls-7" d="m5.37,8.5c.25-.13,1.02.25,1.32.52,0,.04-.11.24-.12.25-.09.01-.68-.56-1.26-.63.01-.05.03-.09.06-.14Z"/>
    <path class="cls-7" d="m6.01,7.81c.27.07.65.83.74,1.21-.03.04-.23.13-.25.13-.09-.05-.21-.86-.63-1.26.04-.03.08-.06.14-.08Z"/>
    <path class="cls-7" d="m6.96,7.76c.14.24-.09,1.05-.28,1.39-.05,0-.25-.06-.27-.07-.04-.11.42-.78.39-1.35.06,0,.1.01.16.03Z"/>
    <path class="cls-7" d="m7.71,8.14c.03.27-.48.94-.77,1.19-.05-.01-.21-.15-.23-.16,0-.12.68-.59.86-1.12.05.03.09.05.14.09Z"/>
    <path class="cls-7" d="m8.4,8.72c-.04.27-.64.84-.96,1.04-.05-.02-.18-.18-.2-.2.03-.13.77-.48,1.03-.96.05.04.08.06.12.11Z"/>
    <path class="cls-7" d="m9.13,9.48c-.08.26-.72.78-1.05.95-.05-.03-.16-.2-.18-.21.04-.14.81-.42,1.11-.86.05.04.08.07.11.13Z"/>
    <path class="cls-7" d="m9.91,10.41c-.1.25-.77.73-1.1.89-.05-.04-.15-.2-.17-.22.06-.15.83-.38,1.16-.8.05.05.08.08.11.14Z"/>
    <path class="cls-7" d="m10.73,11.48c-.13.24-.8.7-1.13.85-.05-.04-.15-.2-.16-.23.06-.15.84-.37,1.18-.77.04.05.07.08.11.14Z"/>
    <path class="cls-7" d="m11.59,12.66c-.15.23-.82.68-1.15.83-.05-.05-.14-.21-.15-.23.07-.16.85-.36,1.2-.74.04.05.07.09.11.15Z"/>
    <path class="cls-7" d="m12.47,13.92c-.17.23-.84.66-1.16.81-.05-.05-.14-.21-.15-.23.08-.17.86-.36,1.21-.73.05.06.07.09.11.15Z"/>
    <path class="cls-7" d="m13.37,15.22c-.18.22-.85.65-1.17.8-.06-.05-.13-.2-.15-.23.09-.18.87-.36,1.21-.72.05.06.07.09.11.15Z"/>
    <path class="cls-7" d="m14.27,16.54c-.2.21-.86.64-1.17.79-.06-.06-.13-.2-.15-.23.09-.19.87-.37,1.21-.72.05.06.07.09.11.16Z"/>
    <path class="cls-7" d="m15.16,17.84c-.21.21-.87.63-1.17.8-.06-.06-.13-.2-.15-.23.09-.2.87-.38,1.21-.72.05.06.07.09.11.16Z"/>
    <path class="cls-7" d="m16.02,19.08c-.23.2-.87.64-1.17.8-.06-.06-.13-.2-.15-.23.1-.21.87-.4,1.2-.73.05.06.08.1.11.16Z"/>
    <path class="cls-7" d="m16.84,20.23c-.24.2-.87.64-1.15.82-.07-.06-.14-.19-.15-.23.1-.23.86-.43,1.19-.76.05.06.08.1.12.16Z"/>
    <path class="cls-7" d="m17.6,21.25c-.25.2-.86.66-1.13.85-.07-.07-.14-.19-.16-.22.1-.24.85-.46,1.17-.79.06.07.08.1.13.16Z"/>
    <path class="cls-7" d="m18.3,22.11c-.25.21-.84.69-1.09.9-.07-.07-.15-.18-.17-.21.09-.25.83-.51,1.13-.84.06.06.09.09.14.15Z"/>
    <path class="cls-7" d="m18.9,22.76c-.25.23-.79.75-1.02.98-.08-.06-.16-.16-.19-.2.07-.27.79-.59,1.06-.93.07.06.1.09.15.15Z"/>
    <path class="cls-7" d="m19.37,23.15c-.23.26-.67.87-.85,1.13-.09-.05-.18-.13-.22-.16.03-.29.68-.72.89-1.09.08.05.11.07.17.12Z"/>
    <path class="cls-7" d="m19.56,23.21c-.12.34-.28,1.06-.34,1.38-.11,0-.22-.05-.26-.07-.09-.29.34-.94.39-1.35.09.02.13.02.21.04Z"/>
    <path class="cls-7" d="m19.22,23.17c.22.29.76.8,1.01,1-.07.09-.15.16-.19.19-.3-.07-.64-.77-.96-1.03.06-.07.09-.1.15-.16Z"/>
    <path class="cls-7" d="m19.38,22.73c.32.2,1,.46,1.31.55-.03.11-.08.21-.1.25-.32.05-.89-.47-1.28-.59.03-.09.05-.13.08-.21Z"/>
    <path class="cls-7" d="m19.68,21.73c.35.18,1.06.34,1.37.38-.02.12-.05.21-.07.26-.32.09-.95-.35-1.35-.42.02-.1.03-.14.05-.22Z"/>
    <path class="cls-7" d="m19.98,20.34c.36.17,1.07.29,1.39.3,0,.12-.04.21-.06.26-.33.11-.98-.29-1.37-.34.02-.1.02-.14.04-.22Z"/>
    <path class="cls-7" d="m20.28,18.66c.38.17,1.08.26,1.39.26,0,.13-.03.21-.05.26-.33.13-1-.25-1.38-.29.01-.1.02-.14.03-.23Z"/>
    <path class="cls-7" d="m20.56,16.8c.39.18,1.09.25,1.4.23,0,.13-.03.21-.04.27-.34.14-1.01-.22-1.38-.27.01-.11.02-.14.03-.23Z"/>
    <path class="cls-7" d="m20.83,14.85c.4.19,1.1.25,1.4.22,0,.14-.02.21-.04.27-.35.15-1.02-.2-1.39-.25.01-.11.02-.15.02-.24Z"/>
    <path class="cls-7" d="m21.08,12.9c.4.2,1.1.26,1.4.22,0,.14-.02.21-.04.26-.36.15-1.03-.19-1.39-.24.01-.11.02-.15.02-.24Z"/>
    <path class="cls-7" d="m21.32,11.04c.41.22,1.1.27,1.4.22,0,.14-.02.2-.04.26-.37.16-1.04-.19-1.39-.24.01-.11.02-.15.02-.24Z"/>
    <path class="cls-7" d="m21.56,9.37c.41.24,1.1.29,1.4.24,0,.15-.02.2-.04.26-.38.16-1.05-.19-1.39-.26.01-.12.02-.15.03-.24Z"/>
    <path class="cls-7" d="m21.78,7.96c.41.26,1.09.33,1.39.28-.01.15-.03.2-.05.26-.4.15-1.05-.22-1.38-.29.02-.12.02-.15.03-.25Z"/>
    <path class="cls-7" d="m22.01,6.86c.4.31,1.06.43,1.36.39-.02.15-.04.19-.07.26-.42.12-1.04-.29-1.35-.4.03-.12.04-.15.05-.25Z"/>
    <path class="cls-7" d="m22.51,5.75c.28.44.87.75,1.17.81-.07.14-.1.17-.14.22-.45-.02-.9-.61-1.15-.81.07-.1.08-.13.13-.22Z"/>
    <path class="cls-7" d="m23.44,5.14c-.09.53.15,1.14.35,1.38-.15.06-.18.06-.25.07-.33-.31-.29-1.06-.34-1.37.12-.04.15-.05.25-.08Z"/>
    <path class="cls-7" d="m24.51,5.4c-.45.31-.71.92-.72,1.22-.15-.07-.17-.08-.23-.13-.01-.47.53-.97.72-1.21.11.06.14.08.23.12Z"/>
    <path class="cls-7" d="m25.26,6.14c-.55.12-1,.59-1.12.87-.12-.12-.13-.14-.17-.2.16-.45.85-.71,1.12-.86.08.1.11.13.18.2Z"/>
    <path class="cls-7" d="m25.91,7.17c-.57,0-1.1.38-1.27.64-.1-.15-.1-.16-.13-.23.25-.42.98-.55,1.26-.64.06.12.08.15.14.23Z"/>
    <path class="cls-7" d="m26.52,8.5c-.58-.07-1.15.24-1.33.49-.08-.16-.08-.17-.1-.24.3-.4,1.04-.44,1.32-.49.05.12.06.16.11.25Z"/>
    <path class="cls-7" d="m27.07,10.1c-.59-.13-1.17.13-1.37.37-.07-.17-.07-.17-.08-.25.35-.38,1.08-.36,1.36-.38.04.13.05.16.09.26Z"/>
    <path class="cls-7" d="m27.55,11.94c-.59-.18-1.18.04-1.4.26-.05-.18-.05-.17-.06-.25.38-.36,1.11-.29,1.38-.27.03.14.04.17.07.27Z"/>
    <path class="cls-7" d="m27.94,13.99c-.59-.24-1.19-.05-1.41.16-.04-.18-.04-.17-.04-.26.41-.34,1.13-.22,1.4-.18.02.14.03.17.06.27Z"/>
    <path class="cls-7" d="m28.19,16.25c-.58-.29-1.18-.15-1.42.06-.03-.19-.03-.17-.03-.26.45-.32,1.15-.15,1.41-.08.01.14.01.18.04.28Z"/>
    <path class="cls-7" d="m28.29,18.58c-.56-.35-1.17-.25-1.42-.05-.01-.2-.02-.17,0-.26.48-.29,1.17-.07,1.41.02,0,.15,0,.18.02.29Z"/>
    <path class="cls-7" d="m28.19,20.9c-.54-.41-1.15-.35-1.41-.17,0-.2,0-.17.01-.26.51-.25,1.18.02,1.41.14-.01.15-.01.18,0,.29Z"/>
  </g>
</svg>