<?xml version="1.0" encoding="UTF-8"?>
<svg id="Layer_1" data-name="Layer 1" xmlns="http://www.w3.org/2000/svg" viewBox="0 0 34.9 34.9">
  <defs>
    <style>
      .cls-1 {
        fill: #0a0a0a;
      }

      .cls-2 {
        fill: #f8f8f8;
      }
    </style>
  </defs>
  <g id="top-left">
    <circle class="cls-1" cx="0" cy="0" r="8.7"/>
    <path class="cls-2" d="m4.62,1.24c-1.36.89-1.52,1.71-1.52,1.71.28,0,.52.06.52.06,0,0-.69,1.72-1.95,1.36C.58,4.35.39.96.35-1.31c.63,0,1.25-.04,1.78-.2.08.21.29.36.53.36.32,0,.57-.26.57-.57s-.26-.57-.57-.57c-.25,0-.46.17-.54.39-.59-.17-1.2-.25-1.78-.26v-.89h.12v-.69c.58-.22.99-.77.99-1.42,0-.85-.69-1.53-1.53-1.53s-1.53.69-1.53,1.53c0,.65.41,1.21.99,1.43v.68h.12v.89c-.59.01-1.21.09-1.81.26-.08-.23-.28-.39-.54-.39-.32,0-.57.26-.57.57s.26.57.57.57c.24,0,.45-.15.53-.36.53.16,1.17.2,1.8.2-.04,2.27-.23,5.66-1.32,5.68-1.26.35-1.95-1.36-1.95-1.36,0,0,.24-.07.52-.06,0,0-.16-.81-1.52-1.71-.75.73-.23,2.37-.23,2.37.17-.22.52-.4.52-.4.2.53.3,1.23,1.22,2.02.91.79,1.98.64,3.11,1.95l.09.12.09-.12c1.13-1.32,2.2-1.16,3.11-1.95s1.02-1.49,1.22-2.02c0,0,.35.17.52.4,0,0,.52-1.64-.23-2.37h-.01ZM-.63-4.63v.35c-.29-.18-.49-.5-.49-.87,0-.57.46-1.03,1.03-1.03s1.03.46,1.03,1.03c0,.37-.2.69-.49.87v-.35H-.63Z"/>
    <path class="cls-2" d="m-4.05,6.07c-2.77-9.53-2.39-10.62-1.75-10.92.8-.38,1.87,1.03,4.12,4.33C-.8.77.39,2.51.86,2.83c.35-.64.75-3.67.96-5.35.15-1.14.27-2.12.39-2.64.21-.98.7-1.03.96-.98,1.33.27,2.68,5.21,2.03,8.78l-.7-.13c.67-3.68-.8-7.67-1.44-7.95-.03.04-.1.15-.16.43-.11.49-.23,1.46-.38,2.58C1.88,2.56,1.57,3.62.89,3.58.31,3.58-.44,2.56-2.27-.12c-1-1.47-2.66-3.9-3.23-4.07-.17.34-.21,2.02,2.13,10.06,0,0-.68.2-.68.2Z"/>
    <path class="cls-2" d="m0,8.47C-4.66,8.47-8.46,4.68-8.46,0S-4.67-8.45,0-8.45,8.46-4.66,8.46,0,4.67,8.47,0,8.47ZM0-7.94C-4.39-7.94-7.96-4.37-7.96.02S-4.39,7.98,0,7.98,7.96,4.41,7.96.02,4.39-7.94,0-7.94Z"/>
  </g>
  <g id="bottom-left">
    <circle class="cls-1" cx="0" cy="34.9" r="8.7"/>
    <path class="cls-2" d="m4.62,36.13c-1.36.89-1.52,1.71-1.52,1.71.28,0,.52.06.52.06,0,0-.69,1.72-1.95,1.36-1.09-.02-1.28-3.41-1.32-5.68.63,0,1.25-.04,1.78-.2.08.21.29.36.53.36.32,0,.57-.26.57-.57s-.26-.57-.57-.57c-.25,0-.46.17-.54.39-.59-.17-1.2-.25-1.78-.26v-.89h.12v-.69c.58-.22.99-.77.99-1.42,0-.85-.69-1.53-1.53-1.53s-1.53.69-1.53,1.53c0,.65.41,1.21.99,1.43v.68h.12v.89c-.59.01-1.21.09-1.81.26-.08-.23-.28-.39-.54-.39-.32,0-.57.26-.57.57s.26.57.57.57c.24,0,.45-.15.53-.36.53.16,1.17.2,1.8.2-.04,2.27-.23,5.66-1.32,5.68-1.26.35-1.95-1.36-1.95-1.36,0,0,.24-.07.52-.06,0,0-.16-.81-1.52-1.71-.75.73-.23,2.37-.23,2.37.17-.22.52-.4.52-.4.2.53.3,1.23,1.22,2.02.91.79,1.98.64,3.11,1.95l.09.12.09-.12c1.13-1.32,2.2-1.16,3.11-1.95s1.02-1.49,1.22-2.02c0,0,.35.17.52.4,0,0,.52-1.64-.23-2.37h-.01ZM-.63,30.26v.35c-.29-.18-.49-.5-.49-.87,0-.57.46-1.03,1.03-1.03s1.03.46,1.03,1.03c0,.37-.2.69-.49.87v-.35H-.63Z"/>
    <path class="cls-2" d="m-4.05,40.96c-2.77-9.53-2.39-10.62-1.75-10.92.8-.38,1.87,1.03,4.12,4.33.88,1.29,2.07,3.03,2.54,3.35.35-.64.75-3.67.96-5.35.15-1.14.27-2.12.39-2.64.21-.98.7-1.03.96-.98,1.33.27,2.68,5.21,2.03,8.78l-.7-.13c.67-3.68-.8-7.67-1.44-7.95-.03.04-.1.15-.16.43-.11.49-.23,1.46-.38,2.58-.64,4.99-.95,6.05-1.63,6.01-.58,0-1.33-1.02-3.16-3.7-1-1.47-2.66-3.9-3.23-4.07-.17.34-.21,2.02,2.13,10.06,0,0-.68.2-.68.2Z"/>
    <path class="cls-2" d="m0,43.36c-4.66,0-8.46-3.79-8.46-8.46S-4.67,26.44,0,26.44s8.46,3.79,8.46,8.46S4.67,43.36,0,43.36ZM0,26.95c-4.39,0-7.96,3.57-7.96,7.96S-4.39,42.87,0,42.87s7.96-3.57,7.96-7.96S4.39,26.95,0,26.95Z"/>
  </g>
  <g id="bottom-right">
    <circle class="cls-1" cx="34.9" cy="34.9" r="8.7"/>
    <path class="cls-2" d="m39.52,36.13c-1.36.89-1.52,1.71-1.52,1.71.28,0,.52.06.52.06,0,0-.69,1.72-1.95,1.36-1.09-.02-1.28-3.41-1.32-5.68.63,0,1.25-.04,1.78-.2.08.21.29.36.53.36.32,0,.57-.26.57-.57s-.26-.57-.57-.57c-.25,0-.46.17-.54.39-.59-.17-1.2-.25-1.78-.26v-.89h.12v-.69c.58-.22.99-.77.99-1.42,0-.85-.69-1.53-1.53-1.53s-1.53.69-1.53,1.53c0,.65.41,1.21.99,1.43v.68h.12v.89c-.59.01-1.21.09-1.81.26-.08-.23-.28-.39-.54-.39-.32,0-.57.26-.57.57s.26.57.57.57c.24,0,.45-.15.53-.36.53.16,1.17.2,1.8.2-.04,2.27-.23,5.66-1.32,5.68-1.26.35-1.95-1.36-1.95-1.36,0,0,.24-.07.52-.06,0,0-.16-.81-1.52-1.71-.75.73-.23,2.37-.23,2.37.17-.22.52-.4.52-.4.2.53.3,1.23,1.22,2.02.91.79,1.98.64,3.11,1.95l.09.12.09-.12c1.13-1.32,2.2-1.16,3.11-1.95s1.02-1.49,1.22-2.02c0,0,.35.17.52.4,0,0,.52-1.64-.23-2.37h-.01Zm-5.25-5.87v.35c-.29-.18-.49-.5-.49-.87,0-.57.46-1.03,1.03-1.03s1.03.46,1.03,1.03c0,.37-.2.69-.49.87v-.35h-1.08Z"/>
    <path class="cls-2" d="m30.85,40.96c-2.77-9.53-2.39-10.62-1.75-10.92.8-.38,1.87,1.03,4.12,4.33.88,1.29,2.07,3.03,2.54,3.35.35-.64.75-3.67.96-5.35.15-1.14.27-2.12.39-2.64.21-.98.7-1.03.96-.98,1.33.27,2.68,5.21,2.03,8.78l-.7-.13c.67-3.68-.8-7.67-1.44-7.95-.03.04-.1.15-.16.43-.11.49-.23,1.46-.38,2.58-.64,4.99-.95,6.05-1.63,6.01-.58,0-1.33-1.02-3.16-3.7-1-1.47-2.66-3.9-3.23-4.07-.17.34-.21,2.02,2.13,10.06,0,0-.68.2-.68.2Z"/>
    <path class="cls-2" d="m34.9,43.36c-4.66,0-8.46-3.79-8.46-8.46s3.79-8.46,8.46-8.46,8.46,3.79,8.46,8.46-3.79,8.46-8.46,8.46Zm0-16.41c-4.39,0-7.96,3.57-7.96,7.96s3.57,7.96,7.96,7.96,7.96-3.57,7.96-7.96-3.57-7.96-7.96-7.96Z"/>
  </g>
  <g id="top-right">
    <circle class="cls-1" cx="34.9" cy=".02" r="8.7"/>
    <path class="cls-2" d="m39.52,1.25c-1.36.89-1.52,1.71-1.52,1.71.28,0,.52.06.52.06,0,0-.69,1.72-1.95,1.36-1.09-.02-1.28-3.41-1.32-5.68.63,0,1.25-.04,1.78-.2.08.21.29.36.53.36.32,0,.57-.26.57-.57s-.26-.57-.57-.57c-.25,0-.46.17-.54.39-.59-.17-1.2-.25-1.78-.26v-.89h.12v-.69c.58-.22.99-.77.99-1.42,0-.85-.69-1.53-1.53-1.53s-1.53.69-1.53,1.53c0,.65.41,1.21.99,1.43v.68h.12v.89c-.59.01-1.21.09-1.81.26-.08-.23-.28-.39-.54-.39-.32,0-.57.26-.57.57s.26.57.57.57c.24,0,.45-.15.53-.36.53.16,1.17.2,1.8.2-.04,2.27-.23,5.66-1.32,5.68-1.26.35-1.95-1.36-1.95-1.36,0,0,.24-.07.52-.06,0,0-.16-.81-1.52-1.71-.75.73-.23,2.37-.23,2.37.17-.22.52-.4.52-.4.2.53.3,1.23,1.22,2.02.91.79,1.98.64,3.11,1.95l.09.12.09-.12c1.13-1.32,2.2-1.16,3.11-1.95s1.02-1.49,1.22-2.02c0,0,.35.17.52.4,0,0,.52-1.64-.23-2.37h-.01Zm-5.25-5.87v.35c-.29-.18-.49-.5-.49-.87,0-.57.46-1.03,1.03-1.03s1.03.46,1.03,1.03c0,.37-.2.69-.49.87v-.35h-1.08Z"/>
    <path class="cls-2" d="m30.85,6.08c-2.77-9.53-2.39-10.62-1.75-10.92.8-.38,1.87,1.03,4.12,4.33.88,1.29,2.07,3.03,2.54,3.35.35-.64.75-3.67.96-5.35.15-1.14.27-2.12.39-2.64.21-.98.7-1.03.96-.98,1.33.27,2.68,5.21,2.03,8.78l-.7-.13c.67-3.68-.8-7.67-1.44-7.95-.03.04-.1.15-.16.43-.11.49-.23,1.46-.38,2.58-.64,4.99-.95,6.05-1.63,6.01-.58,0-1.33-1.02-3.16-3.7-1-1.47-2.66-3.9-3.23-4.07-.17.34-.21,2.02,2.13,10.06,0,0-.68.2-.68.2Z"/>
    <path class="cls-2" d="m34.9,8.48c-4.66,0-8.46-3.79-8.46-8.46s3.79-8.46,8.46-8.46S43.36-4.65,43.36.02s-3.79,8.46-8.46,8.46Zm0-16.41c-4.39,0-7.96,3.57-7.96,7.96s3.57,7.96,7.96,7.96S42.86,4.42,42.86.03s-3.57-7.96-7.96-7.96Z"/>
  </g>
  <g id="center">
    <circle class="cls-1" cx="17.45" cy="17.45" r="8.7"/>
    <path class="cls-2" d="m22.07,18.68c-1.36.89-1.52,1.71-1.52,1.71.28,0,.52.06.52.06,0,0-.69,1.72-1.95,1.36-1.09-.02-1.28-3.41-1.32-5.68.63,0,1.25-.04,1.78-.2.08.21.29.36.53.36.32,0,.57-.26.57-.57s-.26-.57-.57-.57c-.25,0-.46.17-.54.39-.59-.17-1.2-.25-1.78-.26v-.89h.12v-.69c.58-.22.99-.77.99-1.42,0-.85-.69-1.53-1.53-1.53s-1.53.69-1.53,1.53c0,.65.41,1.21.99,1.43v.68h.12v.89c-.59.01-1.21.09-1.81.26-.08-.23-.28-.39-.54-.39-.32,0-.57.26-.57.57s.26.57.57.57c.24,0,.45-.15.53-.36.53.16,1.17.2,1.8.2-.04,2.27-.23,5.66-1.32,5.68-1.26.35-1.95-1.36-1.95-1.36,0,0,.24-.07.52-.06,0,0-.16-.81-1.52-1.71-.75.73-.23,2.37-.23,2.37.17-.22.52-.4.52-.4.2.53.3,1.23,1.22,2.02.91.79,1.98.64,3.11,1.95l.09.12.09-.12c1.13-1.32,2.2-1.16,3.11-1.95s1.02-1.49,1.22-2.02c0,0,.35.17.52.4,0,0,.52-1.64-.23-2.37h-.01Zm-5.25-5.87v.35c-.29-.18-.49-.5-.49-.87,0-.57.46-1.03,1.03-1.03s1.03.46,1.03,1.03c0,.37-.2.69-.49.87v-.35h-1.08Z"/>
    <path class="cls-2" d="m13.4,23.51c-2.77-9.53-2.39-10.62-1.75-10.92.8-.38,1.87,1.03,4.12,4.33.88,1.29,2.07,3.03,2.54,3.35.35-.64.75-3.67.96-5.35.15-1.14.27-2.12.39-2.64.21-.98.7-1.03.96-.98,1.33.27,2.68,5.21,2.03,8.78l-.7-.13c.67-3.68-.8-7.67-1.44-7.95-.03.04-.1.15-.16.43-.11.49-.23,1.46-.38,2.58-.64,4.99-.95,6.05-1.63,6.01-.58,0-1.33-1.02-3.16-3.7-1-1.47-2.66-3.9-3.23-4.07-.17.34-.21,2.02,2.13,10.06,0,0-.68.2-.68.2Z"/>
    <path class="cls-2" d="m17.45,25.91c-4.66,0-8.46-3.79-8.46-8.46s3.79-8.46,8.46-8.46,8.46,3.79,8.46,8.46-3.79,8.46-8.46,8.46Zm0-16.41c-4.39,0-7.96,3.57-7.96,7.96s3.57,7.96,7.96,7.96,7.96-3.57,7.96-7.96-3.57-7.96-7.96-7.96Z"/>
  </g>
</svg>