<?xml version="1.0" encoding="UTF-8"?>
<svg id="Layer_1" data-name="Layer 1" xmlns="http://www.w3.org/2000/svg" viewBox="0 0 458.65 192.76">
  <defs>
    <style>
      .cls-1 {
        fill: #8d671b;
      }
    </style>
  </defs>
  <path class="cls-1" d="m418.56,14.17c4.28,12.06,13.86,21.64,25.92,25.92v112.57c-12.06,4.28-21.64,13.86-25.92,25.92H40.09c-4.28-12.06-13.86-21.64-25.92-25.92V40.09c12.06-4.28,21.64-13.86,25.92-25.92h378.46M430.3,0H28.35C28.35,15.66,15.66,28.35,0,28.35v136.06c15.66,0,28.35,12.69,28.35,28.35h401.95c0-15.66,12.69-28.35,28.35-28.35V28.35C442.99,28.35,430.3,15.66,430.3,0h0Z"/>
</svg>