<?xml version="1.0" encoding="UTF-8"?>
<svg id="Layer_1" data-name="Layer 1" xmlns="http://www.w3.org/2000/svg" viewBox="0 0 458.65 283.47">
  <defs><style>.cls-1 {fill: #8d671b;}</style></defs>
  <path class="cls-1" d="m14.17,40.09c12.06-4.28,21.64-13.86,25.92-25.92h378.46c4.28,12.06,13.86,21.64,25.92,25.92v203.29c-12.06,4.28-21.64,13.86-25.92,25.92H40.09c-4.28-12.06-13.86-21.64-25.92-25.92V40.1M0,28.35v226.77c15.66,0,28.35,12.69,28.35,28.35h401.95c0-15.66,12.69-28.35,28.35-28.35V28.35c-15.66,0-28.35-12.69-28.35-28.35H28.35c0,15.66-12.69,28.35-28.35,28.35h0Z"/>
</svg>