<?xml version="1.0" encoding="UTF-8"?>
<svg id="Layer_1" data-name="Layer 1" xmlns="http://www.w3.org/2000/svg" viewBox="0 0 283.47 458.65">
<defs><style>.cls-1 {fill: #8d671b;}</style></defs>
  <path class="cls-1" d="m243.38,14.17c4.28,12.06,13.86,21.64,25.92,25.92v378.46c-12.06,4.28-21.64,13.86-25.92,25.92H40.09c-4.28-12.06-13.86-21.64-25.92-25.92V40.09c12.06-4.28,21.64-13.86,25.92-25.92h203.28M255.12,0H28.35C28.35,15.66,15.66,28.35,0,28.35v401.95c15.66,0,28.35,12.69,28.35,28.35h226.77c0-15.66,12.69-28.35,28.35-28.35V28.35C267.81,28.35,255.12,15.66,255.12,0h0Z"/>
</svg>