<?xml version="1.0" encoding="UTF-8"?>
<svg id="Layer_1" data-name="Layer 1" xmlns="http://www.w3.org/2000/svg" viewBox="0 0 1717.62 14.17">
  <defs>
    <style>
      .cls-1 {
        fill: #8d671b;
      }
    </style>
  </defs>
  <path class="cls-1" d="m774.79,13.05s-2.79,2.53-6.24,0h0l16.19-11.92s2.82-2.53,6.26,0"/>
  <path class="cls-1" d="m786.98,13.05s-2.79,2.53-6.24,0h0l16.19-11.92s2.82-2.53,6.26,0"/>
  <path class="cls-1" d="m799.17,13.05s-2.79,2.53-6.24,0h0l16.19-11.92s2.82-2.53,6.26,0"/>
  <path class="cls-1" d="m811.36,13.05s-2.79,2.53-6.24,0h0l16.19-11.92s2.82-2.53,6.26,0"/>
  <path class="cls-1" d="m823.55,13.05s-2.79,2.53-6.24,0h0l16.18-11.92s2.82-2.53,6.26,0"/>
  <path class="cls-1" d="m836.02,13.05s-2.79,2.53-6.24,0h0l16.19-11.92s2.82-2.53,6.26,0"/>
  <path class="cls-1" d="m848.21,13.05s-2.79,2.53-6.24,0h0l16.19-11.92s2.82-2.53,6.26,0"/>
  <path class="cls-1" d="m689.43,13.05s-2.79,2.53-6.24,0h0l16.18-11.92s2.82-2.53,6.26,0"/>
  <path class="cls-1" d="m701.62,13.05s-2.79,2.53-6.24,0h0l16.18-11.92s2.82-2.53,6.26,0"/>
  <path class="cls-1" d="m713.81,13.05s-2.79,2.53-6.24,0h0l16.18-11.92s2.82-2.53,6.26,0"/>
  <path class="cls-1" d="m726,13.05s-2.79,2.53-6.24,0h0l16.18-11.92s2.82-2.53,6.26,0"/>
  <path class="cls-1" d="m738.19,13.05s-2.79,2.53-6.24,0h0l16.18-11.92s2.82-2.53,6.26,0"/>
  <path class="cls-1" d="m750.66,13.05s-2.79,2.53-6.24,0h0l16.18-11.92s2.82-2.53,6.26,0"/>
  <path class="cls-1" d="m762.85,13.05s-2.79,2.53-6.24,0h0l16.18-11.92s2.82-2.53,6.26,0"/>
  <path class="cls-1" d="m603.82,13.05s-2.79,2.53-6.24,0h0l16.18-11.92s2.82-2.53,6.26,0"/>
  <path class="cls-1" d="m616.01,13.05s-2.79,2.53-6.24,0h0l16.18-11.92s2.82-2.53,6.26,0"/>
  <path class="cls-1" d="m628.2,13.05s-2.79,2.53-6.24,0h0l16.18-11.92s2.82-2.53,6.26,0"/>
  <path class="cls-1" d="m640.39,13.05s-2.79,2.53-6.24,0h0l16.18-11.92s2.82-2.53,6.26,0"/>
  <path class="cls-1" d="m652.58,13.05s-2.79,2.53-6.24,0h0l16.18-11.92s2.82-2.53,6.26,0"/>
  <path class="cls-1" d="m665.05,13.05s-2.79,2.53-6.24,0h0l16.18-11.92s2.82-2.53,6.26,0"/>
  <path class="cls-1" d="m677.24,13.05s-2.79,2.53-6.24,0h0l16.18-11.92s2.82-2.53,6.26,0"/>
  <path class="cls-1" d="m518.46,13.05s-2.79,2.53-6.24,0h0l16.18-11.92s2.82-2.53,6.26,0"/>
  <path class="cls-1" d="m530.65,13.05s-2.79,2.53-6.24,0h0l16.18-11.92s2.82-2.53,6.26,0"/>
  <path class="cls-1" d="m542.84,13.05s-2.79,2.53-6.24,0h0l16.18-11.92s2.82-2.53,6.26,0"/>
  <path class="cls-1" d="m555.03,13.05s-2.79,2.53-6.24,0h0l16.18-11.92s2.82-2.53,6.26,0"/>
  <path class="cls-1" d="m567.22,13.05s-2.79,2.53-6.24,0h0l16.18-11.92s2.82-2.53,6.26,0"/>
  <path class="cls-1" d="m579.69,13.05s-2.79,2.53-6.24,0h0l16.18-11.92s2.82-2.53,6.26,0"/>
  <path class="cls-1" d="m591.88,13.05s-2.79,2.53-6.24,0h0l16.18-11.92s2.82-2.53,6.26,0"/>
  <path class="cls-1" d="m432.86,13.05s-2.79,2.53-6.24,0h0l16.18-11.92s2.82-2.53,6.26,0"/>
  <path class="cls-1" d="m445.04,13.05s-2.79,2.53-6.24,0h0l16.18-11.92s2.82-2.53,6.26,0"/>
  <path class="cls-1" d="m457.23,13.05s-2.79,2.53-6.24,0h0l16.18-11.92s2.82-2.53,6.26,0"/>
  <path class="cls-1" d="m469.42,13.05s-2.79,2.53-6.24,0h0l16.18-11.92s2.82-2.53,6.26,0"/>
  <path class="cls-1" d="m481.61,13.05s-2.79,2.53-6.24,0h0l16.18-11.92s2.82-2.53,6.26,0"/>
  <path class="cls-1" d="m494.08,13.05s-2.79,2.53-6.24,0h0l16.18-11.92s2.82-2.53,6.26,0"/>
  <path class="cls-1" d="m506.27,13.05s-2.79,2.53-6.24,0h0l16.18-11.92s2.82-2.53,6.26,0"/>
  <path class="cls-1" d="m347.49,13.05s-2.79,2.53-6.24,0h0l16.18-11.92s2.82-2.53,6.26,0"/>
  <path class="cls-1" d="m359.68,13.05s-2.79,2.53-6.24,0h0l16.18-11.92s2.82-2.53,6.26,0"/>
  <path class="cls-1" d="m371.87,13.05s-2.79,2.53-6.24,0h0l16.18-11.92s2.82-2.53,6.26,0"/>
  <path class="cls-1" d="m384.06,13.05s-2.79,2.53-6.24,0h0l16.18-11.92s2.82-2.53,6.26,0"/>
  <path class="cls-1" d="m396.25,13.05s-2.79,2.53-6.24,0h0l16.18-11.92s2.82-2.53,6.26,0"/>
  <path class="cls-1" d="m408.72,13.05s-2.79,2.53-6.24,0h0l16.18-11.92s2.82-2.53,6.26,0"/>
  <path class="cls-1" d="m420.91,13.05s-2.79,2.53-6.24,0h0l16.18-11.92s2.82-2.53,6.26,0"/>
  <path class="cls-1" d="m262.85,13.05s-2.79,2.53-6.24,0h0l16.18-11.92s2.82-2.53,6.26,0"/>
  <path class="cls-1" d="m275.04,13.05s-2.79,2.53-6.24,0h0l16.18-11.92s2.82-2.53,6.26,0"/>
  <path class="cls-1" d="m287.23,13.05s-2.79,2.53-6.24,0h0l16.18-11.92s2.82-2.53,6.26,0"/>
  <path class="cls-1" d="m299.42,13.05s-2.79,2.53-6.24,0h0l16.18-11.92s2.82-2.53,6.26,0"/>
  <path class="cls-1" d="m311.61,13.05s-2.79,2.53-6.24,0h0l16.18-11.92s2.82-2.53,6.26,0"/>
  <path class="cls-1" d="m324.08,13.05s-2.79,2.53-6.24,0h0l16.18-11.92s2.82-2.53,6.26,0"/>
  <path class="cls-1" d="m336.27,13.05s-2.79,2.53-6.24,0h0l16.18-11.92s2.82-2.53,6.26,0"/>
  <path class="cls-1" d="m177.49,13.05s-2.79,2.53-6.24,0h0l16.18-11.92s2.82-2.53,6.26,0"/>
  <path class="cls-1" d="m189.68,13.05s-2.79,2.53-6.24,0h0l16.18-11.92s2.82-2.53,6.26,0"/>
  <path class="cls-1" d="m201.87,13.05s-2.79,2.53-6.24,0h0l16.18-11.92s2.82-2.53,6.26,0"/>
  <path class="cls-1" d="m214.06,13.05s-2.79,2.53-6.24,0h0l16.18-11.92s2.82-2.53,6.26,0"/>
  <path class="cls-1" d="m226.25,13.05s-2.79,2.53-6.24,0h0l16.18-11.92s2.82-2.53,6.26,0"/>
  <path class="cls-1" d="m238.72,13.05s-2.79,2.53-6.24,0h0l16.18-11.92s2.82-2.53,6.26,0"/>
  <path class="cls-1" d="m250.91,13.05s-2.79,2.53-6.24,0h0l16.18-11.92s2.82-2.53,6.26,0"/>
  <path class="cls-1" d="m91.6,13.05s-2.79,2.53-6.24,0h0L101.54,1.13s2.82-2.53,6.26,0"/>
  <path class="cls-1" d="m103.79,13.05s-2.79,2.53-6.24,0h0L113.73,1.13s2.82-2.53,6.26,0"/>
  <path class="cls-1" d="m115.98,13.05s-2.79,2.53-6.24,0h0L125.92,1.13s2.82-2.53,6.26,0"/>
  <path class="cls-1" d="m128.17,13.05s-2.79,2.53-6.24,0h0l16.18-11.92s2.82-2.53,6.26,0"/>
  <path class="cls-1" d="m140.36,13.05s-2.79,2.53-6.24,0h0l16.18-11.92s2.82-2.53,6.26,0"/>
  <path class="cls-1" d="m152.83,13.05s-2.79,2.53-6.24,0h0l16.18-11.92s2.82-2.53,6.26,0"/>
  <path class="cls-1" d="m165.02,13.05s-2.79,2.53-6.24,0h0l16.18-11.92s2.82-2.53,6.26,0"/>
  <path class="cls-1" d="m79.65,13.05s-2.79,2.53-6.24,0h0L89.59,1.13s2.82-2.53,6.26,0"/>
  <path class="cls-1" d="m1627.99,13.05s-2.79,2.53-6.24,0h0l16.19-11.92s2.82-2.53,6.26,0"/>
  <path class="cls-1" d="m1640.18,13.05s-2.79,2.53-6.24,0h0l16.19-11.92s2.82-2.53,6.26,0"/>
  <path class="cls-1" d="m1652.37,13.05s-2.79,2.53-6.24,0h0l16.19-11.92s2.82-2.53,6.26,0"/>
  <path class="cls-1" d="m1664.56,13.05s-2.79,2.53-6.24,0h0l16.19-11.92s2.82-2.53,6.26,0"/>
  <path class="cls-1" d="m1676.75,13.05s-2.79,2.53-6.24,0h0l16.18-11.92s2.82-2.53,6.26,0"/>
  <path class="cls-1" d="m1689.22,13.05s-2.79,2.53-6.24,0h0l16.19-11.92s2.82-2.53,6.26,0"/>
  <path class="cls-1" d="m1701.41,13.05s-2.79,2.53-6.24,0h0l16.19-11.92s2.82-2.53,6.26,0"/>
  <path class="cls-1" d="m1542.63,13.05s-2.79,2.53-6.24,0h0l16.18-11.92s2.82-2.53,6.26,0"/>
  <path class="cls-1" d="m1554.82,13.05s-2.79,2.53-6.24,0h0l16.18-11.92s2.82-2.53,6.26,0"/>
  <path class="cls-1" d="m1567.01,13.05s-2.79,2.53-6.24,0h0l16.18-11.92s2.82-2.53,6.26,0"/>
  <path class="cls-1" d="m1579.2,13.05s-2.79,2.53-6.24,0h0l16.18-11.92s2.82-2.53,6.26,0"/>
  <path class="cls-1" d="m1591.39,13.05s-2.79,2.53-6.24,0h0l16.18-11.92s2.82-2.53,6.26,0"/>
  <path class="cls-1" d="m1603.86,13.05s-2.79,2.53-6.24,0h0l16.18-11.92s2.82-2.53,6.26,0"/>
  <path class="cls-1" d="m1616.05,13.05s-2.79,2.53-6.24,0h0l16.18-11.92s2.82-2.53,6.26,0"/>
  <path class="cls-1" d="m1457.02,13.05s-2.79,2.53-6.24,0h0l16.18-11.92s2.82-2.53,6.26,0"/>
  <path class="cls-1" d="m1469.21,13.05s-2.79,2.53-6.24,0h0l16.18-11.92s2.82-2.53,6.26,0"/>
  <path class="cls-1" d="m1481.4,13.05s-2.79,2.53-6.24,0h0l16.18-11.92s2.82-2.53,6.26,0"/>
  <path class="cls-1" d="m1493.59,13.05s-2.79,2.53-6.24,0h0l16.18-11.92s2.82-2.53,6.26,0"/>
  <path class="cls-1" d="m1505.78,13.05s-2.79,2.53-6.24,0h0l16.18-11.92s2.82-2.53,6.26,0"/>
  <path class="cls-1" d="m1518.25,13.05s-2.79,2.53-6.24,0h0l16.18-11.92s2.82-2.53,6.26,0"/>
  <path class="cls-1" d="m1530.44,13.05s-2.79,2.53-6.24,0h0l16.18-11.92s2.82-2.53,6.26,0"/>
  <path class="cls-1" d="m1371.66,13.05s-2.79,2.53-6.24,0h0l16.18-11.92s2.82-2.53,6.26,0"/>
  <path class="cls-1" d="m1383.85,13.05s-2.79,2.53-6.24,0h0l16.18-11.92s2.82-2.53,6.26,0"/>
  <path class="cls-1" d="m1396.04,13.05s-2.79,2.53-6.24,0h0l16.18-11.92s2.82-2.53,6.26,0"/>
  <path class="cls-1" d="m1408.23,13.05s-2.79,2.53-6.24,0h0l16.18-11.92s2.82-2.53,6.26,0"/>
  <path class="cls-1" d="m1420.42,13.05s-2.79,2.53-6.24,0h0l16.18-11.92s2.82-2.53,6.26,0"/>
  <path class="cls-1" d="m1432.89,13.05s-2.79,2.53-6.24,0h0l16.18-11.92s2.82-2.53,6.26,0"/>
  <path class="cls-1" d="m1445.08,13.05s-2.79,2.53-6.24,0h0l16.18-11.92s2.82-2.53,6.26,0"/>
  <path class="cls-1" d="m1286.06,13.05s-2.79,2.53-6.24,0h0l16.18-11.92s2.82-2.53,6.26,0"/>
  <path class="cls-1" d="m1298.24,13.05s-2.79,2.53-6.24,0h0l16.18-11.92s2.82-2.53,6.26,0"/>
  <path class="cls-1" d="m1310.43,13.05s-2.79,2.53-6.24,0h0l16.18-11.92s2.82-2.53,6.26,0"/>
  <path class="cls-1" d="m1322.62,13.05s-2.79,2.53-6.24,0h0l16.18-11.92s2.82-2.53,6.26,0"/>
  <path class="cls-1" d="m1334.81,13.05s-2.79,2.53-6.24,0h0l16.18-11.92s2.82-2.53,6.26,0"/>
  <path class="cls-1" d="m1347.28,13.05s-2.79,2.53-6.24,0h0l16.18-11.92s2.82-2.53,6.26,0"/>
  <path class="cls-1" d="m1359.47,13.05s-2.79,2.53-6.24,0h0l16.18-11.92s2.82-2.53,6.26,0"/>
  <path class="cls-1" d="m1200.69,13.05s-2.79,2.53-6.24,0h0l16.18-11.92s2.82-2.53,6.26,0"/>
  <path class="cls-1" d="m1212.88,13.05s-2.79,2.53-6.24,0h0l16.18-11.92s2.82-2.53,6.26,0"/>
  <path class="cls-1" d="m1225.07,13.05s-2.79,2.53-6.24,0h0l16.18-11.92s2.82-2.53,6.26,0"/>
  <path class="cls-1" d="m1237.26,13.05s-2.79,2.53-6.24,0h0l16.18-11.92s2.82-2.53,6.26,0"/>
  <path class="cls-1" d="m1249.45,13.05s-2.79,2.53-6.24,0h0l16.18-11.92s2.82-2.53,6.26,0"/>
  <path class="cls-1" d="m1261.92,13.05s-2.79,2.53-6.24,0h0l16.18-11.92s2.82-2.53,6.26,0"/>
  <path class="cls-1" d="m1274.11,13.05s-2.79,2.53-6.24,0h0l16.18-11.92s2.82-2.53,6.26,0"/>
  <path class="cls-1" d="m1116.05,13.05s-2.79,2.53-6.24,0h0l16.18-11.92s2.82-2.53,6.26,0"/>
  <path class="cls-1" d="m1128.24,13.05s-2.79,2.53-6.24,0h0l16.18-11.92s2.82-2.53,6.26,0"/>
  <path class="cls-1" d="m1140.43,13.05s-2.79,2.53-6.24,0h0l16.18-11.92s2.82-2.53,6.26,0"/>
  <path class="cls-1" d="m1152.62,13.05s-2.79,2.53-6.24,0h0l16.18-11.92s2.82-2.53,6.26,0"/>
  <path class="cls-1" d="m1164.81,13.05s-2.79,2.53-6.24,0h0l16.18-11.92s2.82-2.53,6.26,0"/>
  <path class="cls-1" d="m1177.28,13.05s-2.79,2.53-6.24,0h0l16.18-11.92s2.82-2.53,6.26,0"/>
  <path class="cls-1" d="m1189.47,13.05s-2.79,2.53-6.24,0h0l16.18-11.92s2.82-2.53,6.26,0"/>
  <path class="cls-1" d="m1030.69,13.05s-2.79,2.53-6.24,0h0l16.18-11.92s2.82-2.53,6.26,0"/>
  <path class="cls-1" d="m1042.88,13.05s-2.79,2.53-6.24,0h0l16.18-11.92s2.82-2.53,6.26,0"/>
  <path class="cls-1" d="m1055.07,13.05s-2.79,2.53-6.24,0h0l16.18-11.92s2.82-2.53,6.26,0"/>
  <path class="cls-1" d="m1067.26,13.05s-2.79,2.53-6.24,0h0l16.18-11.92s2.82-2.53,6.26,0"/>
  <path class="cls-1" d="m1079.45,13.05s-2.79,2.53-6.24,0h0l16.18-11.92s2.82-2.53,6.26,0"/>
  <path class="cls-1" d="m1091.92,13.05s-2.79,2.53-6.24,0h0l16.18-11.92s2.82-2.53,6.26,0"/>
  <path class="cls-1" d="m1104.11,13.05s-2.79,2.53-6.24,0h0l16.18-11.92s2.82-2.53,6.26,0"/>
  <path class="cls-1" d="m944.8,13.05s-2.79,2.53-6.24,0h0l16.18-11.92s2.82-2.53,6.26,0"/>
  <path class="cls-1" d="m956.99,13.05s-2.79,2.53-6.24,0h0l16.18-11.92s2.82-2.53,6.26,0"/>
  <path class="cls-1" d="m969.18,13.05s-2.79,2.53-6.24,0h0l16.18-11.92s2.82-2.53,6.26,0"/>
  <path class="cls-1" d="m981.37,13.05s-2.79,2.53-6.24,0h0l16.18-11.92s2.82-2.53,6.26,0"/>
  <path class="cls-1" d="m993.56,13.05s-2.79,2.53-6.24,0h0l16.18-11.92s2.82-2.53,6.26,0"/>
  <path class="cls-1" d="m1006.03,13.05s-2.79,2.53-6.24,0h0l16.18-11.92s2.82-2.53,6.26,0"/>
  <path class="cls-1" d="m1018.22,13.05s-2.79,2.53-6.24,0h0l16.18-11.92s2.82-2.53,6.26,0"/>
  <path class="cls-1" d="m859.44,13.05s-2.79,2.53-6.24,0h0l16.18-11.92s2.82-2.53,6.26,0"/>
  <path class="cls-1" d="m871.63,13.05s-2.79,2.53-6.24,0h0l16.18-11.92s2.82-2.53,6.26,0"/>
  <path class="cls-1" d="m883.82,13.05s-2.79,2.53-6.24,0h0l16.18-11.92s2.82-2.53,6.26,0"/>
  <path class="cls-1" d="m896,13.05s-2.79,2.53-6.24,0h0l16.18-11.92s2.82-2.53,6.26,0"/>
  <path class="cls-1" d="m908.19,13.05s-2.79,2.53-6.24,0h0l16.18-11.92s2.82-2.53,6.26,0"/>
  <path class="cls-1" d="m920.67,13.05s-2.79,2.53-6.24,0h0l16.18-11.92s2.82-2.53,6.26,0"/>
  <path class="cls-1" d="m932.85,13.05s-2.79,2.53-6.24,0h0l16.18-11.92s2.82-2.53,6.26,0"/>
  <path class="cls-1" d="m67.47,13.05s-2.79,2.53-6.24,0h0L77.41,1.13s2.82-2.53,6.26,0"/>
  <path class="cls-1" d="m54.99,13.05s-2.79,2.53-6.24,0h0L64.93,1.13s2.82-2.53,6.26,0"/>
  <path class="cls-1" d="m42.8,13.05s-2.79,2.53-6.24,0h0L52.74,1.13s2.82-2.53,6.26,0"/>
  <path class="cls-1" d="m30.62,13.05s-2.79,2.53-6.24,0h0L40.56,1.13s2.82-2.53,6.26,0"/>
  <path class="cls-1" d="m18.43,13.05s-2.79,2.53-6.24,0h0L28.37,1.13s2.82-2.53,6.26,0"/>
  <path class="cls-1" d="m6.24,13.05s-2.79,2.53-6.24,0h0L16.18,1.13s2.82-2.53,6.26,0"/>
</svg>