<?xml version="1.0" encoding="UTF-8"?>
<svg id="rope1" xmlns="http://www.w3.org/2000/svg" viewBox="0 0 1884.93 14.7">
  <defs>
    <style>
      .cls-1 {
        fill: #8d671b;
      }
    </style>
  </defs>
  <path class="cls-1" d="m6.25,13.4c-2.19,1.69-4.28,1.69-6.25,0L16.18,1.31c2.19-1.69,4.28-1.69,6.25,0L6.25,13.4Z"/>
  <path class="cls-1" d="m-6.23,13.4c-2.19,1.69-4.28,1.69-6.25,0L3.7,1.31C5.89-.38,7.98-.38,9.95,1.31L-6.23,13.4Z"/>
  <path class="cls-1" d="m18.75,13.4c-2.19,1.69-4.28,1.69-6.25,0L28.68,1.31c2.19-1.69,4.28-1.69,6.25,0l-16.18,12.09Z"/>
  <path class="cls-1" d="m31.25,13.4c-2.19,1.69-4.28,1.69-6.25,0L41.18,1.31c2.19-1.69,4.28-1.69,6.25,0l-16.18,12.09Z"/>
  <path class="cls-1" d="m43.75,13.4c-2.19,1.69-4.28,1.69-6.25,0L53.68,1.31c2.19-1.69,4.28-1.69,6.25,0l-16.18,12.09Z"/>
  <path class="cls-1" d="m56.25,13.4c-2.19,1.69-4.28,1.69-6.25,0L66.18,1.31c2.19-1.69,4.28-1.69,6.25,0l-16.18,12.09Z"/>
  <path class="cls-1" d="m68.75,13.4c-2.19,1.69-4.28,1.69-6.25,0L78.68,1.31c2.19-1.69,4.28-1.69,6.25,0l-16.18,12.09Z"/>
  <path class="cls-1" d="m81.25,13.4c-2.19,1.69-4.28,1.69-6.25,0L91.18,1.31c2.19-1.69,4.28-1.69,6.25,0l-16.18,12.09Z"/>
  <path class="cls-1" d="m93.75,13.4c-2.19,1.69-4.28,1.69-6.25,0L103.68,1.31c2.19-1.69,4.28-1.69,6.25,0l-16.18,12.09Z"/>
  <path class="cls-1" d="m106.25,13.4c-2.19,1.69-4.28,1.69-6.25,0L116.18,1.31c2.19-1.69,4.28-1.69,6.25,0l-16.18,12.09Z"/>
  <path class="cls-1" d="m118.75,13.4c-2.19,1.69-4.28,1.69-6.25,0l16.18-12.09c2.19-1.69,4.28-1.69,6.25,0l-16.18,12.09Z"/>
  <path class="cls-1" d="m131.25,13.4c-2.19,1.69-4.28,1.69-6.25,0l16.18-12.09c2.19-1.69,4.28-1.69,6.25,0l-16.18,12.09Z"/>
  <path class="cls-1" d="m143.75,13.4c-2.19,1.69-4.28,1.69-6.25,0l16.18-12.09c2.19-1.69,4.28-1.69,6.25,0l-16.18,12.09Z"/>
  <path class="cls-1" d="m156.25,13.4c-2.19,1.69-4.28,1.69-6.25,0l16.18-12.09c2.19-1.69,4.28-1.69,6.25,0l-16.18,12.09Z"/>
  <path class="cls-1" d="m168.75,13.4c-2.19,1.69-4.28,1.69-6.25,0l16.18-12.09c2.19-1.69,4.28-1.69,6.25,0l-16.18,12.09Z"/>
  <path class="cls-1" d="m181.25,13.4c-2.19,1.69-4.28,1.69-6.25,0l16.18-12.09c2.19-1.69,4.28-1.69,6.25,0l-16.18,12.09Z"/>
  <path class="cls-1" d="m193.75,13.4c-2.19,1.69-4.28,1.69-6.25,0l16.18-12.09c2.19-1.69,4.28-1.69,6.25,0l-16.18,12.09Z"/>
  <path class="cls-1" d="m206.25,13.4c-2.19,1.69-4.28,1.69-6.25,0l16.18-12.09c2.19-1.69,4.28-1.69,6.25,0l-16.18,12.09Z"/>
  <path class="cls-1" d="m218.75,13.4c-2.19,1.69-4.28,1.69-6.25,0l16.18-12.09c2.19-1.69,4.28-1.69,6.25,0l-16.18,12.09Z"/>
  <path class="cls-1" d="m231.25,13.4c-2.19,1.69-4.28,1.69-6.25,0l16.18-12.09c2.19-1.69,4.28-1.69,6.25,0l-16.18,12.09Z"/>
  <path class="cls-1" d="m243.75,13.4c-2.19,1.69-4.28,1.69-6.25,0l16.18-12.09c2.19-1.69,4.28-1.69,6.25,0l-16.18,12.09Z"/>
  <path class="cls-1" d="m256.25,13.4c-2.19,1.69-4.28,1.69-6.25,0l16.18-12.09c2.19-1.69,4.28-1.69,6.25,0l-16.18,12.09Z"/>
  <path class="cls-1" d="m268.75,13.4c-2.19,1.69-4.28,1.69-6.25,0l16.18-12.09c2.19-1.69,4.28-1.69,6.25,0l-16.18,12.09Z"/>
  <path class="cls-1" d="m281.25,13.4c-2.19,1.69-4.28,1.69-6.25,0l16.18-12.09c2.19-1.69,4.28-1.69,6.25,0l-16.18,12.09Z"/>
  <path class="cls-1" d="m293.75,13.4c-2.19,1.69-4.28,1.69-6.25,0l16.18-12.09c2.19-1.69,4.28-1.69,6.25,0l-16.18,12.09Z"/>
  <path class="cls-1" d="m306.25,13.4c-2.19,1.69-4.28,1.69-6.25,0l16.18-12.09c2.19-1.69,4.28-1.69,6.25,0l-16.18,12.09Z"/>
  <path class="cls-1" d="m318.75,13.4c-2.19,1.69-4.28,1.69-6.25,0l16.18-12.09c2.19-1.69,4.28-1.69,6.25,0l-16.18,12.09Z"/>
  <path class="cls-1" d="m331.25,13.4c-2.19,1.69-4.28,1.69-6.25,0l16.18-12.09c2.19-1.69,4.28-1.69,6.25,0l-16.18,12.09Z"/>
  <path class="cls-1" d="m343.75,13.4c-2.19,1.69-4.28,1.69-6.25,0l16.18-12.09c2.19-1.69,4.28-1.69,6.25,0l-16.18,12.09Z"/>
  <path class="cls-1" d="m356.25,13.4c-2.19,1.69-4.28,1.69-6.25,0l16.18-12.09c2.19-1.69,4.28-1.69,6.25,0l-16.18,12.09Z"/>
  <path class="cls-1" d="m368.75,13.4c-2.19,1.69-4.28,1.69-6.25,0l16.18-12.09c2.19-1.69,4.28-1.69,6.25,0l-16.18,12.09Z"/>
  <path class="cls-1" d="m381.25,13.4c-2.19,1.69-4.28,1.69-6.25,0l16.18-12.09c2.19-1.69,4.28-1.69,6.25,0l-16.18,12.09Z"/>
  <path class="cls-1" d="m393.75,13.4c-2.19,1.69-4.28,1.69-6.25,0l16.18-12.09c2.19-1.69,4.28-1.69,6.25,0l-16.18,12.09Z"/>
  <path class="cls-1" d="m406.25,13.4c-2.19,1.69-4.28,1.69-6.25,0l16.18-12.09c2.19-1.69,4.28-1.69,6.25,0l-16.18,12.09Z"/>
  <path class="cls-1" d="m418.75,13.4c-2.19,1.69-4.28,1.69-6.25,0l16.18-12.09c2.19-1.69,4.28-1.69,6.25,0l-16.18,12.09Z"/>
  <path class="cls-1" d="m431.25,13.4c-2.19,1.69-4.28,1.69-6.25,0l16.18-12.09c2.19-1.69,4.28-1.69,6.25,0l-16.18,12.09Z"/>
  <path class="cls-1" d="m443.75,13.4c-2.19,1.69-4.28,1.69-6.25,0l16.18-12.09c2.19-1.69,4.28-1.69,6.25,0l-16.18,12.09Z"/>
  <path class="cls-1" d="m456.25,13.4c-2.19,1.69-4.28,1.69-6.25,0l16.18-12.09c2.19-1.69,4.28-1.69,6.25,0l-16.18,12.09Z"/>
  <path class="cls-1" d="m468.75,13.4c-2.19,1.69-4.28,1.69-6.25,0l16.18-12.09c2.19-1.69,4.28-1.69,6.25,0l-16.18,12.09Z"/>
  <path class="cls-1" d="m481.25,13.4c-2.19,1.69-4.28,1.69-6.25,0l16.18-12.09c2.19-1.69,4.28-1.69,6.25,0l-16.18,12.09Z"/>
  <path class="cls-1" d="m493.75,13.4c-2.19,1.69-4.28,1.69-6.25,0l16.18-12.09c2.19-1.69,4.28-1.69,6.25,0l-16.18,12.09Z"/>
  <path class="cls-1" d="m506.25,13.4c-2.19,1.69-4.28,1.69-6.25,0l16.18-12.09c2.19-1.69,4.28-1.69,6.25,0l-16.18,12.09Z"/>
  <path class="cls-1" d="m518.75,13.4c-2.19,1.69-4.28,1.69-6.25,0l16.18-12.09c2.19-1.69,4.28-1.69,6.25,0l-16.18,12.09Z"/>
  <path class="cls-1" d="m531.25,13.4c-2.19,1.69-4.28,1.69-6.25,0l16.18-12.09c2.19-1.69,4.28-1.69,6.25,0l-16.18,12.09Z"/>
  <path class="cls-1" d="m543.75,13.4c-2.19,1.69-4.28,1.69-6.25,0l16.18-12.09c2.19-1.69,4.28-1.69,6.25,0l-16.18,12.09Z"/>
  <path class="cls-1" d="m556.25,13.4c-2.19,1.69-4.28,1.69-6.25,0l16.18-12.09c2.19-1.69,4.28-1.69,6.25,0l-16.18,12.09Z"/>
  <path class="cls-1" d="m568.75,13.4c-2.19,1.69-4.28,1.69-6.25,0l16.18-12.09c2.19-1.69,4.28-1.69,6.25,0l-16.18,12.09Z"/>
  <path class="cls-1" d="m581.25,13.4c-2.19,1.69-4.28,1.69-6.25,0l16.18-12.09c2.19-1.69,4.28-1.69,6.25,0l-16.18,12.09Z"/>
  <path class="cls-1" d="m593.75,13.4c-2.19,1.69-4.28,1.69-6.25,0l16.18-12.09c2.19-1.69,4.28-1.69,6.25,0l-16.18,12.09Z"/>
  <path class="cls-1" d="m606.25,13.4c-2.19,1.69-4.28,1.69-6.25,0l16.18-12.09c2.19-1.69,4.28-1.69,6.25,0l-16.18,12.09Z"/>
  <path class="cls-1" d="m618.75,13.4c-2.19,1.69-4.28,1.69-6.25,0l16.18-12.09c2.19-1.69,4.28-1.69,6.25,0l-16.18,12.09Z"/>
  <path class="cls-1" d="m631.25,13.4c-2.19,1.69-4.28,1.69-6.25,0l16.18-12.09c2.19-1.69,4.28-1.69,6.25,0l-16.18,12.09Z"/>
  <path class="cls-1" d="m643.75,13.4c-2.19,1.69-4.28,1.69-6.25,0l16.18-12.09c2.19-1.69,4.28-1.69,6.25,0l-16.18,12.09Z"/>
  <path class="cls-1" d="m656.25,13.4c-2.19,1.69-4.28,1.69-6.25,0l16.18-12.09c2.19-1.69,4.28-1.69,6.25,0l-16.18,12.09Z"/>
  <path class="cls-1" d="m668.75,13.4c-2.19,1.69-4.28,1.69-6.25,0l16.18-12.09c2.19-1.69,4.28-1.69,6.25,0l-16.18,12.09Z"/>
  <path class="cls-1" d="m681.25,13.4c-2.19,1.69-4.28,1.69-6.25,0l16.18-12.09c2.19-1.69,4.28-1.69,6.25,0l-16.18,12.09Z"/>
  <path class="cls-1" d="m693.75,13.4c-2.19,1.69-4.28,1.69-6.25,0l16.18-12.09c2.19-1.69,4.28-1.69,6.25,0l-16.18,12.09Z"/>
  <path class="cls-1" d="m706.25,13.4c-2.19,1.69-4.28,1.69-6.25,0l16.18-12.09c2.19-1.69,4.28-1.69,6.25,0l-16.18,12.09Z"/>
  <path class="cls-1" d="m718.75,13.4c-2.19,1.69-4.28,1.69-6.25,0l16.18-12.09c2.19-1.69,4.28-1.69,6.25,0l-16.18,12.09Z"/>
  <path class="cls-1" d="m731.25,13.4c-2.19,1.69-4.28,1.69-6.25,0l16.18-12.09c2.19-1.69,4.28-1.69,6.25,0l-16.18,12.09Z"/>
  <path class="cls-1" d="m743.75,13.4c-2.19,1.69-4.28,1.69-6.25,0l16.18-12.09c2.19-1.69,4.28-1.69,6.25,0l-16.18,12.09Z"/>
  <path class="cls-1" d="m756.25,13.4c-2.19,1.69-4.28,1.69-6.25,0l16.18-12.09c2.19-1.69,4.28-1.69,6.25,0l-16.18,12.09Z"/>
  <path class="cls-1" d="m768.75,13.4c-2.19,1.69-4.28,1.69-6.25,0l16.18-12.09c2.19-1.69,4.28-1.69,6.25,0l-16.18,12.09Z"/>
  <path class="cls-1" d="m781.25,13.4c-2.19,1.69-4.28,1.69-6.25,0l16.18-12.09c2.19-1.69,4.28-1.69,6.25,0l-16.18,12.09Z"/>
  <path class="cls-1" d="m793.75,13.4c-2.19,1.69-4.28,1.69-6.25,0l16.18-12.09c2.19-1.69,4.28-1.69,6.25,0l-16.18,12.09Z"/>
  <path class="cls-1" d="m806.25,13.4c-2.19,1.69-4.28,1.69-6.25,0l16.18-12.09c2.19-1.69,4.28-1.69,6.25,0l-16.18,12.09Z"/>
  <path class="cls-1" d="m818.75,13.4c-2.19,1.69-4.28,1.69-6.25,0l16.18-12.09c2.19-1.69,4.28-1.69,6.25,0l-16.18,12.09Z"/>
  <path class="cls-1" d="m831.25,13.4c-2.19,1.69-4.28,1.69-6.25,0l16.18-12.09c2.19-1.69,4.28-1.69,6.25,0l-16.18,12.09Z"/>
  <path class="cls-1" d="m843.75,13.4c-2.19,1.69-4.28,1.69-6.25,0l16.18-12.09c2.19-1.69,4.28-1.69,6.25,0l-16.18,12.09Z"/>
  <path class="cls-1" d="m856.25,13.4c-2.19,1.69-4.28,1.69-6.25,0l16.18-12.09c2.19-1.69,4.28-1.69,6.25,0l-16.18,12.09Z"/>
  <path class="cls-1" d="m868.75,13.4c-2.19,1.69-4.28,1.69-6.25,0l16.18-12.09c2.19-1.69,4.28-1.69,6.25,0l-16.18,12.09Z"/>
  <path class="cls-1" d="m881.25,13.4c-2.19,1.69-4.28,1.69-6.25,0l16.18-12.09c2.19-1.69,4.28-1.69,6.25,0l-16.18,12.09Z"/>
  <path class="cls-1" d="m893.75,13.4c-2.19,1.69-4.28,1.69-6.25,0l16.18-12.09c2.19-1.69,4.28-1.69,6.25,0l-16.18,12.09Z"/>
  <path class="cls-1" d="m906.25,13.4c-2.19,1.69-4.28,1.69-6.25,0l16.18-12.09c2.19-1.69,4.28-1.69,6.25,0l-16.18,12.09Z"/>
  <path class="cls-1" d="m918.75,13.4c-2.19,1.69-4.28,1.69-6.25,0l16.18-12.09c2.19-1.69,4.28-1.69,6.25,0l-16.18,12.09Z"/>
  <path class="cls-1" d="m931.25,13.4c-2.19,1.69-4.28,1.69-6.25,0l16.18-12.09c2.19-1.69,4.28-1.69,6.25,0l-16.18,12.09Z"/>
  <path class="cls-1" d="m943.75,13.4c-2.19,1.69-4.28,1.69-6.25,0l16.18-12.09c2.19-1.69,4.28-1.69,6.25,0l-16.18,12.09Z"/>
  <path class="cls-1" d="m956.25,13.4c-2.19,1.69-4.28,1.69-6.25,0l16.18-12.09c2.19-1.69,4.28-1.69,6.25,0l-16.18,12.09Z"/>
  <path class="cls-1" d="m968.75,13.4c-2.19,1.69-4.28,1.69-6.25,0l16.18-12.09c2.19-1.69,4.28-1.69,6.25,0l-16.18,12.09Z"/>
  <path class="cls-1" d="m981.25,13.4c-2.19,1.69-4.28,1.69-6.25,0l16.18-12.09c2.19-1.69,4.28-1.69,6.25,0l-16.18,12.09Z"/>
  <path class="cls-1" d="m993.75,13.4c-2.19,1.69-4.28,1.69-6.25,0l16.18-12.09c2.19-1.69,4.28-1.69,6.25,0l-16.18,12.09Z"/>
  <path class="cls-1" d="m1006.25,13.4c-2.19,1.69-4.28,1.69-6.25,0l16.18-12.09c2.19-1.69,4.28-1.69,6.25,0l-16.18,12.09Z"/>
  <path class="cls-1" d="m1018.75,13.4c-2.19,1.69-4.28,1.69-6.25,0l16.18-12.09c2.19-1.69,4.28-1.69,6.25,0l-16.18,12.09Z"/>
  <path class="cls-1" d="m1031.25,13.4c-2.19,1.69-4.28,1.69-6.25,0l16.18-12.09c2.19-1.69,4.28-1.69,6.25,0l-16.18,12.09Z"/>
  <path class="cls-1" d="m1043.75,13.4c-2.19,1.69-4.28,1.69-6.25,0l16.18-12.09c2.19-1.69,4.28-1.69,6.25,0l-16.18,12.09Z"/>
  <path class="cls-1" d="m1056.25,13.4c-2.19,1.69-4.28,1.69-6.25,0l16.18-12.09c2.19-1.69,4.28-1.69,6.25,0l-16.18,12.09Z"/>
  <path class="cls-1" d="m1068.75,13.4c-2.19,1.69-4.28,1.69-6.25,0l16.18-12.09c2.19-1.69,4.28-1.69,6.25,0l-16.18,12.09Z"/>
  <path class="cls-1" d="m1081.25,13.4c-2.19,1.69-4.28,1.69-6.25,0l16.18-12.09c2.19-1.69,4.28-1.69,6.25,0l-16.18,12.09Z"/>
  <path class="cls-1" d="m1093.75,13.4c-2.19,1.69-4.28,1.69-6.25,0l16.18-12.09c2.19-1.69,4.28-1.69,6.25,0l-16.18,12.09Z"/>
  <path class="cls-1" d="m1106.25,13.4c-2.19,1.69-4.28,1.69-6.25,0l16.18-12.09c2.19-1.69,4.28-1.69,6.25,0l-16.18,12.09Z"/>
  <path class="cls-1" d="m1118.75,13.4c-2.19,1.69-4.28,1.69-6.25,0l16.18-12.09c2.19-1.69,4.28-1.69,6.25,0l-16.18,12.09Z"/>
  <path class="cls-1" d="m1131.25,13.4c-2.19,1.69-4.28,1.69-6.25,0l16.18-12.09c2.19-1.69,4.28-1.69,6.25,0l-16.18,12.09Z"/>
  <path class="cls-1" d="m1143.75,13.4c-2.19,1.69-4.28,1.69-6.25,0l16.18-12.09c2.19-1.69,4.28-1.69,6.25,0l-16.18,12.09Z"/>
  <path class="cls-1" d="m1156.25,13.4c-2.19,1.69-4.28,1.69-6.25,0l16.18-12.09c2.19-1.69,4.28-1.69,6.25,0l-16.18,12.09Z"/>
  <path class="cls-1" d="m1168.75,13.4c-2.19,1.69-4.28,1.69-6.25,0l16.18-12.09c2.19-1.69,4.28-1.69,6.25,0l-16.18,12.09Z"/>
  <path class="cls-1" d="m1181.25,13.4c-2.19,1.69-4.28,1.69-6.25,0l16.18-12.09c2.19-1.69,4.28-1.69,6.25,0l-16.18,12.09Z"/>
  <path class="cls-1" d="m1193.75,13.4c-2.19,1.69-4.28,1.69-6.25,0l16.18-12.09c2.19-1.69,4.28-1.69,6.25,0l-16.18,12.09Z"/>
  <path class="cls-1" d="m1206.25,13.4c-2.19,1.69-4.28,1.69-6.25,0l16.18-12.09c2.19-1.69,4.28-1.69,6.25,0l-16.18,12.09Z"/>
  <path class="cls-1" d="m1218.75,13.4c-2.19,1.69-4.28,1.69-6.25,0l16.18-12.09c2.19-1.69,4.28-1.69,6.25,0l-16.18,12.09Z"/>
  <path class="cls-1" d="m1231.25,13.4c-2.19,1.69-4.28,1.69-6.25,0l16.18-12.09c2.19-1.69,4.28-1.69,6.25,0l-16.18,12.09Z"/>
  <path class="cls-1" d="m1243.75,13.4c-2.19,1.69-4.28,1.69-6.25,0l16.18-12.09c2.19-1.69,4.28-1.69,6.25,0l-16.18,12.09Z"/>
  <path class="cls-1" d="m1256.25,13.4c-2.19,1.69-4.28,1.69-6.25,0l16.18-12.09c2.19-1.69,4.28-1.69,6.25,0l-16.18,12.09Z"/>
  <path class="cls-1" d="m1268.75,13.4c-2.19,1.69-4.28,1.69-6.25,0l16.18-12.09c2.19-1.69,4.28-1.69,6.25,0l-16.18,12.09Z"/>
  <path class="cls-1" d="m1281.25,13.4c-2.19,1.69-4.28,1.69-6.25,0l16.18-12.09c2.19-1.69,4.28-1.69,6.25,0l-16.18,12.09Z"/>
  <path class="cls-1" d="m1293.75,13.4c-2.19,1.69-4.28,1.69-6.25,0l16.18-12.09c2.19-1.69,4.28-1.69,6.25,0l-16.18,12.09Z"/>
  <path class="cls-1" d="m1306.25,13.4c-2.19,1.69-4.28,1.69-6.25,0l16.18-12.09c2.19-1.69,4.28-1.69,6.25,0l-16.18,12.09Z"/>
  <path class="cls-1" d="m1318.75,13.4c-2.19,1.69-4.28,1.69-6.25,0l16.18-12.09c2.19-1.69,4.28-1.69,6.25,0l-16.18,12.09Z"/>
  <path class="cls-1" d="m1331.25,13.4c-2.19,1.69-4.28,1.69-6.25,0l16.18-12.09c2.19-1.69,4.28-1.69,6.25,0l-16.18,12.09Z"/>
  <path class="cls-1" d="m1343.75,13.4c-2.19,1.69-4.28,1.69-6.25,0l16.18-12.09c2.19-1.69,4.28-1.69,6.25,0l-16.18,12.09Z"/>
  <path class="cls-1" d="m1356.25,13.4c-2.19,1.69-4.28,1.69-6.25,0l16.18-12.09c2.19-1.69,4.28-1.69,6.25,0l-16.18,12.09Z"/>
  <path class="cls-1" d="m1368.75,13.4c-2.19,1.69-4.28,1.69-6.25,0l16.18-12.09c2.19-1.69,4.28-1.69,6.25,0l-16.18,12.09Z"/>
  <path class="cls-1" d="m1381.25,13.4c-2.19,1.69-4.28,1.69-6.25,0l16.18-12.09c2.19-1.69,4.28-1.69,6.25,0l-16.18,12.09Z"/>
  <path class="cls-1" d="m1393.75,13.4c-2.19,1.69-4.28,1.69-6.25,0l16.18-12.09c2.19-1.69,4.28-1.69,6.25,0l-16.18,12.09Z"/>
  <path class="cls-1" d="m1406.25,13.4c-2.19,1.69-4.28,1.69-6.25,0l16.18-12.09c2.19-1.69,4.28-1.69,6.25,0l-16.18,12.09Z"/>
  <path class="cls-1" d="m1418.75,13.4c-2.19,1.69-4.28,1.69-6.25,0l16.18-12.09c2.19-1.69,4.28-1.69,6.25,0l-16.18,12.09Z"/>
  <path class="cls-1" d="m1431.25,13.4c-2.19,1.69-4.28,1.69-6.25,0l16.18-12.09c2.19-1.69,4.28-1.69,6.25,0l-16.18,12.09Z"/>
  <path class="cls-1" d="m1443.75,13.4c-2.19,1.69-4.28,1.69-6.25,0l16.18-12.09c2.19-1.69,4.28-1.69,6.25,0l-16.18,12.09Z"/>
  <path class="cls-1" d="m1456.25,13.4c-2.19,1.69-4.28,1.69-6.25,0l16.18-12.09c2.19-1.69,4.28-1.69,6.25,0l-16.18,12.09Z"/>
  <path class="cls-1" d="m1468.75,13.4c-2.19,1.69-4.28,1.69-6.25,0l16.18-12.09c2.19-1.69,4.28-1.69,6.25,0l-16.18,12.09Z"/>
  <path class="cls-1" d="m1481.25,13.4c-2.19,1.69-4.28,1.69-6.25,0l16.18-12.09c2.19-1.69,4.28-1.69,6.25,0l-16.18,12.09Z"/>
  <path class="cls-1" d="m1493.75,13.4c-2.19,1.69-4.28,1.69-6.25,0l16.18-12.09c2.19-1.69,4.28-1.69,6.25,0l-16.18,12.09Z"/>
  <path class="cls-1" d="m1506.25,13.4c-2.19,1.69-4.28,1.69-6.25,0l16.18-12.09c2.19-1.69,4.28-1.69,6.25,0l-16.18,12.09Z"/>
  <path class="cls-1" d="m1518.75,13.4c-2.19,1.69-4.28,1.69-6.25,0l16.18-12.09c2.19-1.69,4.28-1.69,6.25,0l-16.18,12.09Z"/>
  <path class="cls-1" d="m1531.25,13.4c-2.19,1.69-4.28,1.69-6.25,0l16.18-12.09c2.19-1.69,4.28-1.69,6.25,0l-16.18,12.09Z"/>
  <path class="cls-1" d="m1543.75,13.4c-2.19,1.69-4.28,1.69-6.25,0l16.18-12.09c2.19-1.69,4.28-1.69,6.25,0l-16.18,12.09Z"/>
  <path class="cls-1" d="m1556.25,13.4c-2.19,1.69-4.28,1.69-6.25,0l16.18-12.09c2.19-1.69,4.28-1.69,6.25,0l-16.18,12.09Z"/>
  <path class="cls-1" d="m1568.75,13.4c-2.19,1.69-4.28,1.69-6.25,0l16.18-12.09c2.19-1.69,4.28-1.69,6.25,0l-16.18,12.09Z"/>
  <path class="cls-1" d="m1581.25,13.4c-2.19,1.69-4.28,1.69-6.25,0l16.18-12.09c2.19-1.69,4.28-1.69,6.25,0l-16.18,12.09Z"/>
  <path class="cls-1" d="m1593.75,13.4c-2.19,1.69-4.28,1.69-6.25,0l16.18-12.09c2.19-1.69,4.28-1.69,6.25,0l-16.18,12.09Z"/>
  <path class="cls-1" d="m1606.25,13.4c-2.19,1.69-4.28,1.69-6.25,0l16.18-12.09c2.19-1.69,4.28-1.69,6.25,0l-16.18,12.09Z"/>
  <path class="cls-1" d="m1618.75,13.4c-2.19,1.69-4.28,1.69-6.25,0l16.18-12.09c2.19-1.69,4.28-1.69,6.25,0l-16.18,12.09Z"/>
  <path class="cls-1" d="m1631.25,13.4c-2.19,1.69-4.28,1.69-6.25,0l16.18-12.09c2.19-1.69,4.28-1.69,6.25,0l-16.18,12.09Z"/>
  <path class="cls-1" d="m1643.75,13.4c-2.19,1.69-4.28,1.69-6.25,0l16.18-12.09c2.19-1.69,4.28-1.69,6.25,0l-16.18,12.09Z"/>
  <path class="cls-1" d="m1656.25,13.4c-2.19,1.69-4.28,1.69-6.25,0l16.18-12.09c2.19-1.69,4.28-1.69,6.25,0l-16.18,12.09Z"/>
  <path class="cls-1" d="m1668.75,13.4c-2.19,1.69-4.28,1.69-6.25,0l16.18-12.09c2.19-1.69,4.28-1.69,6.25,0l-16.18,12.09Z"/>
  <path class="cls-1" d="m1681.25,13.4c-2.19,1.69-4.28,1.69-6.25,0l16.18-12.09c2.19-1.69,4.28-1.69,6.25,0l-16.18,12.09Z"/>
  <path class="cls-1" d="m1693.75,13.4c-2.19,1.69-4.28,1.69-6.25,0l16.18-12.09c2.19-1.69,4.28-1.69,6.25,0l-16.18,12.09Z"/>
  <path class="cls-1" d="m1706.25,13.4c-2.19,1.69-4.28,1.69-6.25,0l16.18-12.09c2.19-1.69,4.28-1.69,6.25,0l-16.18,12.09Z"/>
  <path class="cls-1" d="m1718.75,13.4c-2.19,1.69-4.28,1.69-6.25,0l16.18-12.09c2.19-1.69,4.28-1.69,6.25,0l-16.18,12.09Z"/>
  <path class="cls-1" d="m1731.25,13.4c-2.19,1.69-4.28,1.69-6.25,0l16.18-12.09c2.19-1.69,4.28-1.69,6.25,0l-16.18,12.09Z"/>
  <path class="cls-1" d="m1743.75,13.4c-2.19,1.69-4.28,1.69-6.25,0l16.18-12.09c2.19-1.69,4.28-1.69,6.25,0l-16.18,12.09Z"/>
  <path class="cls-1" d="m1756.25,13.4c-2.19,1.69-4.28,1.69-6.25,0l16.18-12.09c2.19-1.69,4.28-1.69,6.25,0l-16.18,12.09Z"/>
  <path class="cls-1" d="m1768.75,13.4c-2.19,1.69-4.28,1.69-6.25,0l16.18-12.09c2.19-1.69,4.28-1.69,6.25,0l-16.18,12.09Z"/>
  <path class="cls-1" d="m1781.25,13.4c-2.19,1.69-4.28,1.69-6.25,0l16.18-12.09c2.19-1.69,4.28-1.69,6.25,0l-16.18,12.09Z"/>
  <path class="cls-1" d="m1793.75,13.4c-2.19,1.69-4.28,1.69-6.25,0l16.18-12.09c2.19-1.69,4.28-1.69,6.25,0l-16.18,12.09Z"/>
  <path class="cls-1" d="m1806.25,13.4c-2.19,1.69-4.28,1.69-6.25,0l16.18-12.09c2.19-1.69,4.28-1.69,6.25,0l-16.18,12.09Z"/>
  <path class="cls-1" d="m1818.75,13.4c-2.19,1.69-4.28,1.69-6.25,0l16.18-12.09c2.19-1.69,4.28-1.69,6.25,0l-16.18,12.09Z"/>
  <path class="cls-1" d="m1831.25,13.4c-2.19,1.69-4.28,1.69-6.25,0l16.18-12.09c2.19-1.69,4.28-1.69,6.25,0l-16.18,12.09Z"/>
  <path class="cls-1" d="m1843.75,13.4c-2.19,1.69-4.28,1.69-6.25,0l16.18-12.09c2.19-1.69,4.28-1.69,6.25,0l-16.18,12.09Z"/>
  <path class="cls-1" d="m1856.25,13.4c-2.19,1.69-4.28,1.69-6.25,0l16.18-12.09c2.19-1.69,4.28-1.69,6.25,0l-16.18,12.09Z"/>
  <path class="cls-1" d="m1868.75,13.4c-2.19,1.69-4.28,1.69-6.25,0l16.18-12.09c2.19-1.69,4.28-1.69,6.25,0l-16.18,12.09Z"/>
  <path class="cls-1" d="m1881.25,13.4c-2.19,1.69-4.28,1.69-6.25,0l16.18-12.09c2.19-1.69,4.28-1.69,6.25,0l-16.18,12.09Z"/>
</svg>