<?xml version="1.0" encoding="UTF-8"?>
<svg id="rope1" xmlns="http://www.w3.org/2000/svg" viewBox="0 0 1884.93 14.7">
  <defs>
    <style>
      .cls-1 {
        fill: #8d671b;
      }
    </style>
  </defs>
  <path class="cls-1" d="m1878.7,13.4c2.19,1.69,4.28,1.69,6.25,0l-16.18-12.09c-2.19-1.69-4.28-1.69-6.25,0l16.18,12.09Z"/>
  <path class="cls-1" d="m1891.18,13.4c2.19,1.69,4.28,1.69,6.25,0l-16.18-12.09c-2.19-1.69-4.28-1.69-6.25,0l16.18,12.09Z"/>
  <path class="cls-1" d="m1866.2,13.4c2.19,1.69,4.28,1.69,6.25,0l-16.18-12.09c-2.19-1.69-4.28-1.69-6.25,0l16.18,12.09Z"/>
  <path class="cls-1" d="m1853.7,13.4c2.19,1.69,4.28,1.69,6.25,0l-16.18-12.09c-2.19-1.69-4.28-1.69-6.25,0l16.18,12.09Z"/>
  <path class="cls-1" d="m1841.2,13.4c2.19,1.69,4.28,1.69,6.25,0l-16.18-12.09c-2.19-1.69-4.28-1.69-6.25,0l16.18,12.09Z"/>
  <path class="cls-1" d="m1828.7,13.4c2.19,1.69,4.28,1.69,6.25,0l-16.18-12.09c-2.19-1.69-4.28-1.69-6.25,0l16.18,12.09Z"/>
  <path class="cls-1" d="m1816.2,13.4c2.19,1.69,4.28,1.69,6.25,0l-16.18-12.09c-2.19-1.69-4.28-1.69-6.25,0l16.18,12.09Z"/>
  <path class="cls-1" d="m1803.7,13.4c2.19,1.69,4.28,1.69,6.25,0l-16.18-12.09c-2.19-1.69-4.28-1.69-6.25,0l16.18,12.09Z"/>
  <path class="cls-1" d="m1791.2,13.4c2.19,1.69,4.28,1.69,6.25,0l-16.18-12.09c-2.19-1.69-4.28-1.69-6.25,0l16.18,12.09Z"/>
  <path class="cls-1" d="m1778.7,13.4c2.19,1.69,4.28,1.69,6.25,0l-16.18-12.09c-2.19-1.69-4.28-1.69-6.25,0l16.18,12.09Z"/>
  <path class="cls-1" d="m1766.2,13.4c2.19,1.69,4.28,1.69,6.25,0l-16.18-12.09c-2.19-1.69-4.28-1.69-6.25,0l16.18,12.09Z"/>
  <path class="cls-1" d="m1753.7,13.4c2.19,1.69,4.28,1.69,6.25,0l-16.18-12.09c-2.19-1.69-4.28-1.69-6.25,0l16.18,12.09Z"/>
  <path class="cls-1" d="m1741.2,13.4c2.19,1.69,4.28,1.69,6.25,0l-16.18-12.09c-2.19-1.69-4.28-1.69-6.25,0l16.18,12.09Z"/>
  <path class="cls-1" d="m1728.7,13.4c2.19,1.69,4.28,1.69,6.25,0l-16.18-12.09c-2.19-1.69-4.28-1.69-6.25,0l16.18,12.09Z"/>
  <path class="cls-1" d="m1716.2,13.4c2.19,1.69,4.28,1.69,6.25,0l-16.18-12.09c-2.19-1.69-4.28-1.69-6.25,0l16.18,12.09Z"/>
  <path class="cls-1" d="m1703.7,13.4c2.19,1.69,4.28,1.69,6.25,0l-16.18-12.09c-2.19-1.69-4.28-1.69-6.25,0l16.18,12.09Z"/>
  <path class="cls-1" d="m1691.2,13.4c2.19,1.69,4.28,1.69,6.25,0l-16.18-12.09c-2.19-1.69-4.28-1.69-6.25,0l16.18,12.09Z"/>
  <path class="cls-1" d="m1678.7,13.4c2.19,1.69,4.28,1.69,6.25,0l-16.18-12.09c-2.19-1.69-4.28-1.69-6.25,0l16.18,12.09Z"/>
  <path class="cls-1" d="m1666.2,13.4c2.19,1.69,4.28,1.69,6.25,0l-16.18-12.09c-2.19-1.69-4.28-1.69-6.25,0l16.18,12.09Z"/>
  <path class="cls-1" d="m1653.7,13.4c2.19,1.69,4.28,1.69,6.25,0l-16.18-12.09c-2.19-1.69-4.28-1.69-6.25,0l16.18,12.09Z"/>
  <path class="cls-1" d="m1641.2,13.4c2.19,1.69,4.28,1.69,6.25,0l-16.18-12.09c-2.19-1.69-4.28-1.69-6.25,0l16.18,12.09Z"/>
  <path class="cls-1" d="m1628.7,13.4c2.19,1.69,4.28,1.69,6.25,0l-16.18-12.09c-2.19-1.69-4.28-1.69-6.25,0l16.18,12.09Z"/>
  <path class="cls-1" d="m1616.2,13.4c2.19,1.69,4.28,1.69,6.25,0l-16.18-12.09c-2.19-1.69-4.28-1.69-6.25,0l16.18,12.09Z"/>
  <path class="cls-1" d="m1603.7,13.4c2.19,1.69,4.28,1.69,6.25,0l-16.18-12.09c-2.19-1.69-4.28-1.69-6.25,0l16.18,12.09Z"/>
  <path class="cls-1" d="m1591.2,13.4c2.19,1.69,4.28,1.69,6.25,0l-16.18-12.09c-2.19-1.69-4.28-1.69-6.25,0l16.18,12.09Z"/>
  <path class="cls-1" d="m1578.7,13.4c2.19,1.69,4.28,1.69,6.25,0l-16.18-12.09c-2.19-1.69-4.28-1.69-6.25,0l16.18,12.09Z"/>
  <path class="cls-1" d="m1566.2,13.4c2.19,1.69,4.28,1.69,6.25,0l-16.18-12.09c-2.19-1.69-4.28-1.69-6.25,0l16.18,12.09Z"/>
  <path class="cls-1" d="m1553.7,13.4c2.19,1.69,4.28,1.69,6.25,0l-16.18-12.09c-2.19-1.69-4.28-1.69-6.25,0l16.18,12.09Z"/>
  <path class="cls-1" d="m1541.2,13.4c2.19,1.69,4.28,1.69,6.25,0l-16.18-12.09c-2.19-1.69-4.28-1.69-6.25,0l16.18,12.09Z"/>
  <path class="cls-1" d="m1528.7,13.4c2.19,1.69,4.28,1.69,6.25,0l-16.18-12.09c-2.19-1.69-4.28-1.69-6.25,0l16.18,12.09Z"/>
  <path class="cls-1" d="m1516.2,13.4c2.19,1.69,4.28,1.69,6.25,0l-16.18-12.09c-2.19-1.69-4.28-1.69-6.25,0l16.18,12.09Z"/>
  <path class="cls-1" d="m1503.7,13.4c2.19,1.69,4.28,1.69,6.25,0l-16.18-12.09c-2.19-1.69-4.28-1.69-6.25,0l16.18,12.09Z"/>
  <path class="cls-1" d="m1491.2,13.4c2.19,1.69,4.28,1.69,6.25,0l-16.18-12.09c-2.19-1.69-4.28-1.69-6.25,0l16.18,12.09Z"/>
  <path class="cls-1" d="m1478.7,13.4c2.19,1.69,4.28,1.69,6.25,0l-16.18-12.09c-2.19-1.69-4.28-1.69-6.25,0l16.18,12.09Z"/>
  <path class="cls-1" d="m1466.2,13.4c2.19,1.69,4.28,1.69,6.25,0l-16.18-12.09c-2.19-1.69-4.28-1.69-6.25,0l16.18,12.09Z"/>
  <path class="cls-1" d="m1453.7,13.4c2.19,1.69,4.28,1.69,6.25,0l-16.18-12.09c-2.19-1.69-4.28-1.69-6.25,0l16.18,12.09Z"/>
  <path class="cls-1" d="m1441.2,13.4c2.19,1.69,4.28,1.69,6.25,0l-16.18-12.09c-2.19-1.69-4.28-1.69-6.25,0l16.18,12.09Z"/>
  <path class="cls-1" d="m1428.7,13.4c2.19,1.69,4.28,1.69,6.25,0l-16.18-12.09c-2.19-1.69-4.28-1.69-6.25,0l16.18,12.09Z"/>
  <path class="cls-1" d="m1416.2,13.4c2.19,1.69,4.28,1.69,6.25,0l-16.18-12.09c-2.19-1.69-4.28-1.69-6.25,0l16.18,12.09Z"/>
  <path class="cls-1" d="m1403.7,13.4c2.19,1.69,4.28,1.69,6.25,0l-16.18-12.09c-2.19-1.69-4.28-1.69-6.25,0l16.18,12.09Z"/>
  <path class="cls-1" d="m1391.2,13.4c2.19,1.69,4.28,1.69,6.25,0l-16.18-12.09c-2.19-1.69-4.28-1.69-6.25,0l16.18,12.09Z"/>
  <path class="cls-1" d="m1378.7,13.4c2.19,1.69,4.28,1.69,6.25,0l-16.18-12.09c-2.19-1.69-4.28-1.69-6.25,0l16.18,12.09Z"/>
  <path class="cls-1" d="m1366.2,13.4c2.19,1.69,4.28,1.69,6.25,0l-16.18-12.09c-2.19-1.69-4.28-1.69-6.25,0l16.18,12.09Z"/>
  <path class="cls-1" d="m1353.7,13.4c2.19,1.69,4.28,1.69,6.25,0l-16.18-12.09c-2.19-1.69-4.28-1.69-6.25,0l16.18,12.09Z"/>
  <path class="cls-1" d="m1341.2,13.4c2.19,1.69,4.28,1.69,6.25,0l-16.18-12.09c-2.19-1.69-4.28-1.69-6.25,0l16.18,12.09Z"/>
  <path class="cls-1" d="m1328.7,13.4c2.19,1.69,4.28,1.69,6.25,0l-16.18-12.09c-2.19-1.69-4.28-1.69-6.25,0l16.18,12.09Z"/>
  <path class="cls-1" d="m1316.2,13.4c2.19,1.69,4.28,1.69,6.25,0l-16.18-12.09c-2.19-1.69-4.28-1.69-6.25,0l16.18,12.09Z"/>
  <path class="cls-1" d="m1303.7,13.4c2.19,1.69,4.28,1.69,6.25,0l-16.18-12.09c-2.19-1.69-4.28-1.69-6.25,0l16.18,12.09Z"/>
  <path class="cls-1" d="m1291.2,13.4c2.19,1.69,4.28,1.69,6.25,0l-16.18-12.09c-2.19-1.69-4.28-1.69-6.25,0l16.18,12.09Z"/>
  <path class="cls-1" d="m1278.7,13.4c2.19,1.69,4.28,1.69,6.25,0l-16.18-12.09c-2.19-1.69-4.28-1.69-6.25,0l16.18,12.09Z"/>
  <path class="cls-1" d="m1266.2,13.4c2.19,1.69,4.28,1.69,6.25,0l-16.18-12.09c-2.19-1.69-4.28-1.69-6.25,0l16.18,12.09Z"/>
  <path class="cls-1" d="m1253.7,13.4c2.19,1.69,4.28,1.69,6.25,0l-16.18-12.09c-2.19-1.69-4.28-1.69-6.25,0l16.18,12.09Z"/>
  <path class="cls-1" d="m1241.2,13.4c2.19,1.69,4.28,1.69,6.25,0l-16.18-12.09c-2.19-1.69-4.28-1.69-6.25,0l16.18,12.09Z"/>
  <path class="cls-1" d="m1228.7,13.4c2.19,1.69,4.28,1.69,6.25,0l-16.18-12.09c-2.19-1.69-4.28-1.69-6.25,0l16.18,12.09Z"/>
  <path class="cls-1" d="m1216.2,13.4c2.19,1.69,4.28,1.69,6.25,0l-16.18-12.09c-2.19-1.69-4.28-1.69-6.25,0l16.18,12.09Z"/>
  <path class="cls-1" d="m1203.7,13.4c2.19,1.69,4.28,1.69,6.25,0l-16.18-12.09c-2.19-1.69-4.28-1.69-6.25,0l16.18,12.09Z"/>
  <path class="cls-1" d="m1191.2,13.4c2.19,1.69,4.28,1.69,6.25,0l-16.18-12.09c-2.19-1.69-4.28-1.69-6.25,0l16.18,12.09Z"/>
  <path class="cls-1" d="m1178.7,13.4c2.19,1.69,4.28,1.69,6.25,0l-16.18-12.09c-2.19-1.69-4.28-1.69-6.25,0l16.18,12.09Z"/>
  <path class="cls-1" d="m1166.2,13.4c2.19,1.69,4.28,1.69,6.25,0l-16.18-12.09c-2.19-1.69-4.28-1.69-6.25,0l16.18,12.09Z"/>
  <path class="cls-1" d="m1153.7,13.4c2.19,1.69,4.28,1.69,6.25,0l-16.18-12.09c-2.19-1.69-4.28-1.69-6.25,0l16.18,12.09Z"/>
  <path class="cls-1" d="m1141.2,13.4c2.19,1.69,4.28,1.69,6.25,0l-16.18-12.09c-2.19-1.69-4.28-1.69-6.25,0l16.18,12.09Z"/>
  <path class="cls-1" d="m1128.7,13.4c2.19,1.69,4.28,1.69,6.25,0l-16.18-12.09c-2.19-1.69-4.28-1.69-6.25,0l16.18,12.09Z"/>
  <path class="cls-1" d="m1116.2,13.4c2.19,1.69,4.28,1.69,6.25,0l-16.18-12.09c-2.19-1.69-4.28-1.69-6.25,0l16.18,12.09Z"/>
  <path class="cls-1" d="m1103.7,13.4c2.19,1.69,4.28,1.69,6.25,0l-16.18-12.09c-2.19-1.69-4.28-1.69-6.25,0l16.18,12.09Z"/>
  <path class="cls-1" d="m1091.2,13.4c2.19,1.69,4.28,1.69,6.25,0l-16.18-12.09c-2.19-1.69-4.28-1.69-6.25,0l16.18,12.09Z"/>
  <path class="cls-1" d="m1078.7,13.4c2.19,1.69,4.28,1.69,6.25,0l-16.18-12.09c-2.19-1.69-4.28-1.69-6.25,0l16.18,12.09Z"/>
  <path class="cls-1" d="m1066.2,13.4c2.19,1.69,4.28,1.69,6.25,0l-16.18-12.09c-2.19-1.69-4.28-1.69-6.25,0l16.18,12.09Z"/>
  <path class="cls-1" d="m1053.7,13.4c2.19,1.69,4.28,1.69,6.25,0l-16.18-12.09c-2.19-1.69-4.28-1.69-6.25,0l16.18,12.09Z"/>
  <path class="cls-1" d="m1041.2,13.4c2.19,1.69,4.28,1.69,6.25,0l-16.18-12.09c-2.19-1.69-4.28-1.69-6.25,0l16.18,12.09Z"/>
  <path class="cls-1" d="m1028.7,13.4c2.19,1.69,4.28,1.69,6.25,0l-16.18-12.09c-2.19-1.69-4.28-1.69-6.25,0l16.18,12.09Z"/>
  <path class="cls-1" d="m1016.2,13.4c2.19,1.69,4.28,1.69,6.25,0l-16.18-12.09c-2.19-1.69-4.28-1.69-6.25,0l16.18,12.09Z"/>
  <path class="cls-1" d="m1003.7,13.4c2.19,1.69,4.28,1.69,6.25,0l-16.18-12.09c-2.19-1.69-4.28-1.69-6.25,0l16.18,12.09Z"/>
  <path class="cls-1" d="m991.2,13.4c2.19,1.69,4.28,1.69,6.25,0l-16.18-12.09c-2.19-1.69-4.28-1.69-6.25,0l16.18,12.09Z"/>
  <path class="cls-1" d="m978.7,13.4c2.19,1.69,4.28,1.69,6.25,0l-16.18-12.09c-2.19-1.69-4.28-1.69-6.25,0l16.18,12.09Z"/>
  <path class="cls-1" d="m966.2,13.4c2.19,1.69,4.28,1.69,6.25,0l-16.18-12.09c-2.19-1.69-4.28-1.69-6.25,0l16.18,12.09Z"/>
  <path class="cls-1" d="m953.7,13.4c2.19,1.69,4.28,1.69,6.25,0l-16.18-12.09c-2.19-1.69-4.28-1.69-6.25,0l16.18,12.09Z"/>
  <path class="cls-1" d="m941.2,13.4c2.19,1.69,4.28,1.69,6.25,0l-16.18-12.09c-2.19-1.69-4.28-1.69-6.25,0l16.18,12.09Z"/>
  <path class="cls-1" d="m928.7,13.4c2.19,1.69,4.28,1.69,6.25,0l-16.18-12.09c-2.19-1.69-4.28-1.69-6.25,0l16.18,12.09Z"/>
  <path class="cls-1" d="m916.2,13.4c2.19,1.69,4.28,1.69,6.25,0l-16.18-12.09c-2.19-1.69-4.28-1.69-6.25,0l16.18,12.09Z"/>
  <path class="cls-1" d="m903.7,13.4c2.19,1.69,4.28,1.69,6.25,0l-16.18-12.09c-2.19-1.69-4.28-1.69-6.25,0l16.18,12.09Z"/>
  <path class="cls-1" d="m891.2,13.4c2.19,1.69,4.28,1.69,6.25,0l-16.18-12.09c-2.19-1.69-4.28-1.69-6.25,0l16.18,12.09Z"/>
  <path class="cls-1" d="m878.7,13.4c2.19,1.69,4.28,1.69,6.25,0l-16.18-12.09c-2.19-1.69-4.28-1.69-6.25,0l16.18,12.09Z"/>
  <path class="cls-1" d="m866.2,13.4c2.19,1.69,4.28,1.69,6.25,0l-16.18-12.09c-2.19-1.69-4.28-1.69-6.25,0l16.18,12.09Z"/>
  <path class="cls-1" d="m853.7,13.4c2.19,1.69,4.28,1.69,6.25,0l-16.18-12.09c-2.19-1.69-4.28-1.69-6.25,0l16.18,12.09Z"/>
  <path class="cls-1" d="m841.2,13.4c2.19,1.69,4.28,1.69,6.25,0l-16.18-12.09c-2.19-1.69-4.28-1.69-6.25,0l16.18,12.09Z"/>
  <path class="cls-1" d="m828.7,13.4c2.19,1.69,4.28,1.69,6.25,0l-16.18-12.09c-2.19-1.69-4.28-1.69-6.25,0l16.18,12.09Z"/>
  <path class="cls-1" d="m816.2,13.4c2.19,1.69,4.28,1.69,6.25,0l-16.18-12.09c-2.19-1.69-4.28-1.69-6.25,0l16.18,12.09Z"/>
  <path class="cls-1" d="m803.7,13.4c2.19,1.69,4.28,1.69,6.25,0l-16.18-12.09c-2.19-1.69-4.28-1.69-6.25,0l16.18,12.09Z"/>
  <path class="cls-1" d="m791.2,13.4c2.19,1.69,4.28,1.69,6.25,0l-16.18-12.09c-2.19-1.69-4.28-1.69-6.25,0l16.18,12.09Z"/>
  <path class="cls-1" d="m778.7,13.4c2.19,1.69,4.28,1.69,6.25,0l-16.18-12.09c-2.19-1.69-4.28-1.69-6.25,0l16.18,12.09Z"/>
  <path class="cls-1" d="m766.2,13.4c2.19,1.69,4.28,1.69,6.25,0l-16.18-12.09c-2.19-1.69-4.28-1.69-6.25,0l16.18,12.09Z"/>
  <path class="cls-1" d="m753.7,13.4c2.19,1.69,4.28,1.69,6.25,0l-16.18-12.09c-2.19-1.69-4.28-1.69-6.25,0l16.18,12.09Z"/>
  <path class="cls-1" d="m741.2,13.4c2.19,1.69,4.28,1.69,6.25,0l-16.18-12.09c-2.19-1.69-4.28-1.69-6.25,0l16.18,12.09Z"/>
  <path class="cls-1" d="m728.7,13.4c2.19,1.69,4.28,1.69,6.25,0l-16.18-12.09c-2.19-1.69-4.28-1.69-6.25,0l16.18,12.09Z"/>
  <path class="cls-1" d="m716.2,13.4c2.19,1.69,4.28,1.69,6.25,0l-16.18-12.09c-2.19-1.69-4.28-1.69-6.25,0l16.18,12.09Z"/>
  <path class="cls-1" d="m703.7,13.4c2.19,1.69,4.28,1.69,6.25,0l-16.18-12.09c-2.19-1.69-4.28-1.69-6.25,0l16.18,12.09Z"/>
  <path class="cls-1" d="m691.2,13.4c2.19,1.69,4.28,1.69,6.25,0l-16.18-12.09c-2.19-1.69-4.28-1.69-6.25,0l16.18,12.09Z"/>
  <path class="cls-1" d="m678.7,13.4c2.19,1.69,4.28,1.69,6.25,0l-16.18-12.09c-2.19-1.69-4.28-1.69-6.25,0l16.18,12.09Z"/>
  <path class="cls-1" d="m666.2,13.4c2.19,1.69,4.28,1.69,6.25,0l-16.18-12.09c-2.19-1.69-4.28-1.69-6.25,0l16.18,12.09Z"/>
  <path class="cls-1" d="m653.7,13.4c2.19,1.69,4.28,1.69,6.25,0l-16.18-12.09c-2.19-1.69-4.28-1.69-6.25,0l16.18,12.09Z"/>
  <path class="cls-1" d="m641.2,13.4c2.19,1.69,4.28,1.69,6.25,0l-16.18-12.09c-2.19-1.69-4.28-1.69-6.25,0l16.18,12.09Z"/>
  <path class="cls-1" d="m628.7,13.4c2.19,1.69,4.28,1.69,6.25,0l-16.18-12.09c-2.19-1.69-4.28-1.69-6.25,0l16.18,12.09Z"/>
  <path class="cls-1" d="m616.2,13.4c2.19,1.69,4.28,1.69,6.25,0l-16.18-12.09c-2.19-1.69-4.28-1.69-6.25,0l16.18,12.09Z"/>
  <path class="cls-1" d="m603.7,13.4c2.19,1.69,4.28,1.69,6.25,0l-16.18-12.09c-2.19-1.69-4.28-1.69-6.25,0l16.18,12.09Z"/>
  <path class="cls-1" d="m591.2,13.4c2.19,1.69,4.28,1.69,6.25,0l-16.18-12.09c-2.19-1.69-4.28-1.69-6.25,0l16.18,12.09Z"/>
  <path class="cls-1" d="m578.7,13.4c2.19,1.69,4.28,1.69,6.25,0l-16.18-12.09c-2.19-1.69-4.28-1.69-6.25,0l16.18,12.09Z"/>
  <path class="cls-1" d="m566.2,13.4c2.19,1.69,4.28,1.69,6.25,0l-16.18-12.09c-2.19-1.69-4.28-1.69-6.25,0l16.18,12.09Z"/>
  <path class="cls-1" d="m553.7,13.4c2.19,1.69,4.28,1.69,6.25,0l-16.18-12.09c-2.19-1.69-4.28-1.69-6.25,0l16.18,12.09Z"/>
  <path class="cls-1" d="m541.2,13.4c2.19,1.69,4.28,1.69,6.25,0l-16.18-12.09c-2.19-1.69-4.28-1.69-6.25,0l16.18,12.09Z"/>
  <path class="cls-1" d="m528.7,13.4c2.19,1.69,4.28,1.69,6.25,0l-16.18-12.09c-2.19-1.69-4.28-1.69-6.25,0l16.18,12.09Z"/>
  <path class="cls-1" d="m516.2,13.4c2.19,1.69,4.28,1.69,6.25,0l-16.18-12.09c-2.19-1.69-4.28-1.69-6.25,0l16.18,12.09Z"/>
  <path class="cls-1" d="m503.7,13.4c2.19,1.69,4.28,1.69,6.25,0l-16.18-12.09c-2.19-1.69-4.28-1.69-6.25,0l16.18,12.09Z"/>
  <path class="cls-1" d="m491.2,13.4c2.19,1.69,4.28,1.69,6.25,0l-16.18-12.09c-2.19-1.69-4.28-1.69-6.25,0l16.18,12.09Z"/>
  <path class="cls-1" d="m478.7,13.4c2.19,1.69,4.28,1.69,6.25,0l-16.18-12.09c-2.19-1.69-4.28-1.69-6.25,0l16.18,12.09Z"/>
  <path class="cls-1" d="m466.2,13.4c2.19,1.69,4.28,1.69,6.25,0l-16.18-12.09c-2.19-1.69-4.28-1.69-6.25,0l16.18,12.09Z"/>
  <path class="cls-1" d="m453.7,13.4c2.19,1.69,4.28,1.69,6.25,0l-16.18-12.09c-2.19-1.69-4.28-1.69-6.25,0l16.18,12.09Z"/>
  <path class="cls-1" d="m441.2,13.4c2.19,1.69,4.28,1.69,6.25,0l-16.18-12.09c-2.19-1.69-4.28-1.69-6.25,0l16.18,12.09Z"/>
  <path class="cls-1" d="m428.7,13.4c2.19,1.69,4.28,1.69,6.25,0l-16.18-12.09c-2.19-1.69-4.28-1.69-6.25,0l16.18,12.09Z"/>
  <path class="cls-1" d="m416.2,13.4c2.19,1.69,4.28,1.69,6.25,0l-16.18-12.09c-2.19-1.69-4.28-1.69-6.25,0l16.18,12.09Z"/>
  <path class="cls-1" d="m403.7,13.4c2.19,1.69,4.28,1.69,6.25,0l-16.18-12.09c-2.19-1.69-4.28-1.69-6.25,0l16.18,12.09Z"/>
  <path class="cls-1" d="m391.2,13.4c2.19,1.69,4.28,1.69,6.25,0l-16.18-12.09c-2.19-1.69-4.28-1.69-6.25,0l16.18,12.09Z"/>
  <path class="cls-1" d="m378.7,13.4c2.19,1.69,4.28,1.69,6.25,0l-16.18-12.09c-2.19-1.69-4.28-1.69-6.25,0l16.18,12.09Z"/>
  <path class="cls-1" d="m366.2,13.4c2.19,1.69,4.28,1.69,6.25,0l-16.18-12.09c-2.19-1.69-4.28-1.69-6.25,0l16.18,12.09Z"/>
  <path class="cls-1" d="m353.7,13.4c2.19,1.69,4.28,1.69,6.25,0l-16.18-12.09c-2.19-1.69-4.28-1.69-6.25,0l16.18,12.09Z"/>
  <path class="cls-1" d="m341.2,13.4c2.19,1.69,4.28,1.69,6.25,0l-16.18-12.09c-2.19-1.69-4.28-1.69-6.25,0l16.18,12.09Z"/>
  <path class="cls-1" d="m328.7,13.4c2.19,1.69,4.28,1.69,6.25,0l-16.18-12.09c-2.19-1.69-4.28-1.69-6.25,0l16.18,12.09Z"/>
  <path class="cls-1" d="m316.2,13.4c2.19,1.69,4.28,1.69,6.25,0l-16.18-12.09c-2.19-1.69-4.28-1.69-6.25,0l16.18,12.09Z"/>
  <path class="cls-1" d="m303.7,13.4c2.19,1.69,4.28,1.69,6.25,0l-16.18-12.09c-2.19-1.69-4.28-1.69-6.25,0l16.18,12.09Z"/>
  <path class="cls-1" d="m291.2,13.4c2.19,1.69,4.28,1.69,6.25,0l-16.18-12.09c-2.19-1.69-4.28-1.69-6.25,0l16.18,12.09Z"/>
  <path class="cls-1" d="m278.7,13.4c2.19,1.69,4.28,1.69,6.25,0l-16.18-12.09c-2.19-1.69-4.28-1.69-6.25,0l16.18,12.09Z"/>
  <path class="cls-1" d="m266.2,13.4c2.19,1.69,4.28,1.69,6.25,0l-16.18-12.09c-2.19-1.69-4.28-1.69-6.25,0l16.18,12.09Z"/>
  <path class="cls-1" d="m253.7,13.4c2.19,1.69,4.28,1.69,6.25,0l-16.18-12.09c-2.19-1.69-4.28-1.69-6.25,0l16.18,12.09Z"/>
  <path class="cls-1" d="m241.2,13.4c2.19,1.69,4.28,1.69,6.25,0l-16.18-12.09c-2.19-1.69-4.28-1.69-6.25,0l16.18,12.09Z"/>
  <path class="cls-1" d="m228.7,13.4c2.19,1.69,4.28,1.69,6.25,0l-16.18-12.09c-2.19-1.69-4.28-1.69-6.25,0l16.18,12.09Z"/>
  <path class="cls-1" d="m216.2,13.4c2.19,1.69,4.28,1.69,6.25,0l-16.18-12.09c-2.19-1.69-4.28-1.69-6.25,0l16.18,12.09Z"/>
  <path class="cls-1" d="m203.7,13.4c2.19,1.69,4.28,1.69,6.25,0l-16.18-12.09c-2.19-1.69-4.28-1.69-6.25,0l16.18,12.09Z"/>
  <path class="cls-1" d="m191.2,13.4c2.19,1.69,4.28,1.69,6.25,0l-16.18-12.09c-2.19-1.69-4.28-1.69-6.25,0l16.18,12.09Z"/>
  <path class="cls-1" d="m178.7,13.4c2.19,1.69,4.28,1.69,6.25,0l-16.18-12.09c-2.19-1.69-4.28-1.69-6.25,0l16.18,12.09Z"/>
  <path class="cls-1" d="m166.2,13.4c2.19,1.69,4.28,1.69,6.25,0l-16.18-12.09c-2.19-1.69-4.28-1.69-6.25,0l16.18,12.09Z"/>
  <path class="cls-1" d="m153.7,13.4c2.19,1.69,4.28,1.69,6.25,0l-16.18-12.09c-2.19-1.69-4.28-1.69-6.25,0l16.18,12.09Z"/>
  <path class="cls-1" d="m141.2,13.4c2.19,1.69,4.28,1.69,6.25,0l-16.18-12.09c-2.19-1.69-4.28-1.69-6.25,0l16.18,12.09Z"/>
  <path class="cls-1" d="m128.7,13.4c2.19,1.69,4.28,1.69,6.25,0L118.77,1.31c-2.19-1.69-4.28-1.69-6.25,0l16.18,12.09Z"/>
  <path class="cls-1" d="m116.2,13.4c2.19,1.69,4.28,1.69,6.25,0L106.27,1.31c-2.19-1.69-4.28-1.69-6.25,0l16.18,12.09Z"/>
  <path class="cls-1" d="m103.7,13.4c2.19,1.69,4.28,1.69,6.25,0L93.77,1.31c-2.19-1.69-4.28-1.69-6.25,0l16.18,12.09Z"/>
  <path class="cls-1" d="m91.2,13.4c2.19,1.69,4.28,1.69,6.25,0L81.27,1.31c-2.19-1.69-4.28-1.69-6.25,0l16.18,12.09Z"/>
  <path class="cls-1" d="m78.7,13.4c2.19,1.69,4.28,1.69,6.25,0L68.77,1.31c-2.19-1.69-4.28-1.69-6.25,0l16.18,12.09Z"/>
  <path class="cls-1" d="m66.2,13.4c2.19,1.69,4.28,1.69,6.25,0L56.27,1.31c-2.19-1.69-4.28-1.69-6.25,0l16.18,12.09Z"/>
  <path class="cls-1" d="m53.7,13.4c2.19,1.69,4.28,1.69,6.25,0L43.77,1.31c-2.19-1.69-4.28-1.69-6.25,0l16.18,12.09Z"/>
  <path class="cls-1" d="m41.2,13.4c2.19,1.69,4.28,1.69,6.25,0L31.27,1.31c-2.19-1.69-4.28-1.69-6.25,0l16.18,12.09Z"/>
  <path class="cls-1" d="m28.7,13.4c2.19,1.69,4.28,1.69,6.25,0L18.77,1.31c-2.19-1.69-4.28-1.69-6.25,0l16.18,12.09Z"/>
  <path class="cls-1" d="m16.2,13.4c2.19,1.69,4.28,1.69,6.25,0L6.27,1.31C4.08-.38,1.99-.38.02,1.31l16.18,12.09Z"/>
  <path class="cls-1" d="m3.7,13.4c2.19,1.69,4.28,1.69,6.25,0L-6.23,1.31c-2.19-1.69-4.28-1.69-6.25,0L3.7,13.4Z"/>
</svg>