<?xml version="1.0" encoding="UTF-8"?>
<svg id="Layer_1" data-name="Layer 1" xmlns="http://www.w3.org/2000/svg" viewBox="0 0 1717.62 14.17">
  <defs>
    <style>
      .cls-1 {
        fill: #8d671b;
      }
    </style>
  </defs>
  <path class="cls-1" d="m942.83,13.05s2.79,2.53,6.24,0h0l-16.19-11.92s-2.82-2.53-6.26,0"/>
  <path class="cls-1" d="m930.64,13.05s2.79,2.53,6.24,0h0l-16.19-11.92s-2.82-2.53-6.26,0"/>
  <path class="cls-1" d="m918.45,13.05s2.79,2.53,6.24,0h0l-16.19-11.92s-2.82-2.53-6.26,0"/>
  <path class="cls-1" d="m906.26,13.05s2.79,2.53,6.24,0h0l-16.19-11.92s-2.82-2.53-6.26,0"/>
  <path class="cls-1" d="m894.07,13.05s2.79,2.53,6.24,0h0l-16.18-11.92s-2.82-2.53-6.26,0"/>
  <path class="cls-1" d="m881.6,13.05s2.79,2.53,6.24,0h0l-16.19-11.92s-2.82-2.53-6.26,0"/>
  <path class="cls-1" d="m869.41,13.05s2.79,2.53,6.24,0h0l-16.19-11.92s-2.82-2.53-6.26,0"/>
  <path class="cls-1" d="m1028.19,13.05s2.79,2.53,6.24,0h0l-16.18-11.92s-2.82-2.53-6.26,0"/>
  <path class="cls-1" d="m1016,13.05s2.79,2.53,6.24,0h0l-16.18-11.92s-2.82-2.53-6.26,0"/>
  <path class="cls-1" d="m1003.81,13.05s2.79,2.53,6.24,0h0l-16.18-11.92s-2.82-2.53-6.26,0"/>
  <path class="cls-1" d="m991.62,13.05s2.79,2.53,6.24,0h0l-16.18-11.92s-2.82-2.53-6.26,0"/>
  <path class="cls-1" d="m979.43,13.05s2.79,2.53,6.24,0h0l-16.18-11.92s-2.82-2.53-6.26,0"/>
  <path class="cls-1" d="m966.96,13.05s2.79,2.53,6.24,0h0l-16.18-11.92s-2.82-2.53-6.26,0"/>
  <path class="cls-1" d="m954.77,13.05s2.79,2.53,6.24,0h0l-16.18-11.92s-2.82-2.53-6.26,0"/>
  <path class="cls-1" d="m1113.8,13.05s2.79,2.53,6.24,0h0l-16.18-11.92s-2.82-2.53-6.26,0"/>
  <path class="cls-1" d="m1101.61,13.05s2.79,2.53,6.24,0h0l-16.18-11.92s-2.82-2.53-6.26,0"/>
  <path class="cls-1" d="m1089.42,13.05s2.79,2.53,6.24,0h0l-16.18-11.92s-2.82-2.53-6.26,0"/>
  <path class="cls-1" d="m1077.23,13.05s2.79,2.53,6.24,0h0l-16.18-11.92s-2.82-2.53-6.26,0"/>
  <path class="cls-1" d="m1065.04,13.05s2.79,2.53,6.24,0h0l-16.18-11.92s-2.82-2.53-6.26,0"/>
  <path class="cls-1" d="m1052.57,13.05s2.79,2.53,6.24,0h0l-16.18-11.92s-2.82-2.53-6.26,0"/>
  <path class="cls-1" d="m1040.38,13.05s2.79,2.53,6.24,0h0l-16.18-11.92s-2.82-2.53-6.26,0"/>
  <path class="cls-1" d="m1199.16,13.05s2.79,2.53,6.24,0h0l-16.18-11.92s-2.82-2.53-6.26,0"/>
  <path class="cls-1" d="m1186.97,13.05s2.79,2.53,6.24,0h0l-16.18-11.92s-2.82-2.53-6.26,0"/>
  <path class="cls-1" d="m1174.78,13.05s2.79,2.53,6.24,0h0l-16.18-11.92s-2.82-2.53-6.26,0"/>
  <path class="cls-1" d="m1162.59,13.05s2.79,2.53,6.24,0h0l-16.18-11.92s-2.82-2.53-6.26,0"/>
  <path class="cls-1" d="m1150.4,13.05s2.79,2.53,6.24,0h0l-16.18-11.92s-2.82-2.53-6.26,0"/>
  <path class="cls-1" d="m1137.93,13.05s2.79,2.53,6.24,0h0l-16.18-11.92s-2.82-2.53-6.26,0"/>
  <path class="cls-1" d="m1125.74,13.05s2.79,2.53,6.24,0h0l-16.18-11.92s-2.82-2.53-6.26,0"/>
  <path class="cls-1" d="m1284.76,13.05s2.79,2.53,6.24,0h0l-16.18-11.92s-2.82-2.53-6.26,0"/>
  <path class="cls-1" d="m1272.58,13.05s2.79,2.53,6.24,0h0l-16.18-11.92s-2.82-2.53-6.26,0"/>
  <path class="cls-1" d="m1260.39,13.05s2.79,2.53,6.24,0h0l-16.18-11.92s-2.82-2.53-6.26,0"/>
  <path class="cls-1" d="m1248.2,13.05s2.79,2.53,6.24,0h0l-16.18-11.92s-2.82-2.53-6.26,0"/>
  <path class="cls-1" d="m1236.01,13.05s2.79,2.53,6.24,0h0l-16.18-11.92s-2.82-2.53-6.26,0"/>
  <path class="cls-1" d="m1223.54,13.05s2.79,2.53,6.24,0h0l-16.18-11.92s-2.82-2.53-6.26,0"/>
  <path class="cls-1" d="m1211.35,13.05s2.79,2.53,6.24,0h0l-16.18-11.92s-2.82-2.53-6.26,0"/>
  <path class="cls-1" d="m1370.13,13.05s2.79,2.53,6.24,0h0l-16.18-11.92s-2.82-2.53-6.26,0"/>
  <path class="cls-1" d="m1357.94,13.05s2.79,2.53,6.24,0h0l-16.18-11.92s-2.82-2.53-6.26,0"/>
  <path class="cls-1" d="m1345.75,13.05s2.79,2.53,6.24,0h0l-16.18-11.92s-2.82-2.53-6.26,0"/>
  <path class="cls-1" d="m1333.56,13.05s2.79,2.53,6.24,0h0l-16.18-11.92s-2.82-2.53-6.26,0"/>
  <path class="cls-1" d="m1321.37,13.05s2.79,2.53,6.24,0h0l-16.18-11.92s-2.82-2.53-6.26,0"/>
  <path class="cls-1" d="m1308.9,13.05s2.79,2.53,6.24,0h0l-16.18-11.92s-2.82-2.53-6.26,0"/>
  <path class="cls-1" d="m1296.71,13.05s2.79,2.53,6.24,0h0l-16.18-11.92s-2.82-2.53-6.26,0"/>
  <path class="cls-1" d="m1454.77,13.05s2.79,2.53,6.24,0h0l-16.18-11.92s-2.82-2.53-6.26,0"/>
  <path class="cls-1" d="m1442.58,13.05s2.79,2.53,6.24,0h0l-16.18-11.92s-2.82-2.53-6.26,0"/>
  <path class="cls-1" d="m1430.39,13.05s2.79,2.53,6.24,0h0l-16.18-11.92s-2.82-2.53-6.26,0"/>
  <path class="cls-1" d="m1418.2,13.05s2.79,2.53,6.24,0h0l-16.18-11.92s-2.82-2.53-6.26,0"/>
  <path class="cls-1" d="m1406.01,13.05s2.79,2.53,6.24,0h0l-16.18-11.92s-2.82-2.53-6.26,0"/>
  <path class="cls-1" d="m1393.54,13.05s2.79,2.53,6.24,0h0l-16.18-11.92s-2.82-2.53-6.26,0"/>
  <path class="cls-1" d="m1381.35,13.05s2.79,2.53,6.24,0h0l-16.18-11.92s-2.82-2.53-6.26,0"/>
  <path class="cls-1" d="m1540.13,13.05s2.79,2.53,6.24,0h0l-16.18-11.92s-2.82-2.53-6.26,0"/>
  <path class="cls-1" d="m1527.94,13.05s2.79,2.53,6.24,0h0l-16.18-11.92s-2.82-2.53-6.26,0"/>
  <path class="cls-1" d="m1515.75,13.05s2.79,2.53,6.24,0h0l-16.18-11.92s-2.82-2.53-6.26,0"/>
  <path class="cls-1" d="m1503.56,13.05s2.79,2.53,6.24,0h0l-16.18-11.92s-2.82-2.53-6.26,0"/>
  <path class="cls-1" d="m1491.37,13.05s2.79,2.53,6.24,0h0l-16.18-11.92s-2.82-2.53-6.26,0"/>
  <path class="cls-1" d="m1478.9,13.05s2.79,2.53,6.24,0h0l-16.18-11.92s-2.82-2.53-6.26,0"/>
  <path class="cls-1" d="m1466.71,13.05s2.79,2.53,6.24,0h0l-16.18-11.92s-2.82-2.53-6.26,0"/>
  <path class="cls-1" d="m1626.02,13.05s2.79,2.53,6.24,0h0l-16.18-11.92s-2.82-2.53-6.26,0"/>
  <path class="cls-1" d="m1613.83,13.05s2.79,2.53,6.24,0h0l-16.18-11.92s-2.82-2.53-6.26,0"/>
  <path class="cls-1" d="m1601.64,13.05s2.79,2.53,6.24,0h0l-16.18-11.92s-2.82-2.53-6.26,0"/>
  <path class="cls-1" d="m1589.45,13.05s2.79,2.53,6.24,0h0l-16.18-11.92s-2.82-2.53-6.26,0"/>
  <path class="cls-1" d="m1577.26,13.05s2.79,2.53,6.24,0h0l-16.18-11.92s-2.82-2.53-6.26,0"/>
  <path class="cls-1" d="m1564.79,13.05s2.79,2.53,6.24,0h0l-16.18-11.92s-2.82-2.53-6.26,0"/>
  <path class="cls-1" d="m1552.6,13.05s2.79,2.53,6.24,0h0l-16.18-11.92s-2.82-2.53-6.26,0"/>
  <path class="cls-1" d="m1711.38,13.05s2.79,2.53,6.24,0h0l-16.18-11.92s-2.82-2.53-6.26,0"/>
  <path class="cls-1" d="m1699.19,13.05s2.79,2.53,6.24,0h0l-16.18-11.92s-2.82-2.53-6.26,0"/>
  <path class="cls-1" d="m1687,13.05s2.79,2.53,6.24,0h0l-16.18-11.92s-2.82-2.53-6.26,0"/>
  <path class="cls-1" d="m1674.82,13.05s2.79,2.53,6.24,0h0l-16.18-11.92s-2.82-2.53-6.26,0"/>
  <path class="cls-1" d="m1662.63,13.05s2.79,2.53,6.24,0h0l-16.18-11.92s-2.82-2.53-6.26,0"/>
  <path class="cls-1" d="m1650.15,13.05s2.79,2.53,6.24,0h0l-16.18-11.92s-2.82-2.53-6.26,0"/>
  <path class="cls-1" d="m1637.97,13.05s2.79,2.53,6.24,0h0l-16.18-11.92s-2.82-2.53-6.26,0"/>
  <path class="cls-1" d="m89.63,13.05s2.79,2.53,6.24,0h0L79.68,1.13s-2.82-2.53-6.26,0"/>
  <path class="cls-1" d="m77.44,13.05s2.79,2.53,6.24,0h0L67.49,1.13s-2.82-2.53-6.26,0"/>
  <path class="cls-1" d="m65.25,13.05s2.79,2.53,6.24,0h0L55.3,1.13s-2.82-2.53-6.26,0"/>
  <path class="cls-1" d="m53.06,13.05s2.79,2.53,6.24,0h0L43.11,1.13s-2.82-2.53-6.26,0"/>
  <path class="cls-1" d="m40.87,13.05s2.79,2.53,6.24,0h0L30.93,1.13s-2.82-2.53-6.26,0"/>
  <path class="cls-1" d="m28.4,13.05s2.79,2.53,6.24,0h0L18.45,1.13s-2.82-2.53-6.26,0"/>
  <path class="cls-1" d="m16.21,13.05s2.79,2.53,6.24,0h0L6.26,1.13S3.44-1.4,0,1.13"/>
  <path class="cls-1" d="m174.99,13.05s2.79,2.53,6.24,0h0l-16.18-11.92s-2.82-2.53-6.26,0"/>
  <path class="cls-1" d="m162.8,13.05s2.79,2.53,6.24,0h0l-16.18-11.92s-2.82-2.53-6.26,0"/>
  <path class="cls-1" d="m150.61,13.05s2.79,2.53,6.24,0h0l-16.18-11.92s-2.82-2.53-6.26,0"/>
  <path class="cls-1" d="m138.42,13.05s2.79,2.53,6.24,0h0l-16.18-11.92s-2.82-2.53-6.26,0"/>
  <path class="cls-1" d="m126.23,13.05s2.79,2.53,6.24,0h0L116.29,1.13s-2.82-2.53-6.26,0"/>
  <path class="cls-1" d="m113.76,13.05s2.79,2.53,6.24,0h0L103.82,1.13s-2.82-2.53-6.26,0"/>
  <path class="cls-1" d="m101.57,13.05s2.79,2.53,6.24,0h0L91.63,1.13s-2.82-2.53-6.26,0"/>
  <path class="cls-1" d="m260.6,13.05s2.79,2.53,6.24,0h0l-16.18-11.92s-2.82-2.53-6.26,0"/>
  <path class="cls-1" d="m248.41,13.05s2.79,2.53,6.24,0h0l-16.18-11.92s-2.82-2.53-6.26,0"/>
  <path class="cls-1" d="m236.22,13.05s2.79,2.53,6.24,0h0l-16.18-11.92s-2.82-2.53-6.26,0"/>
  <path class="cls-1" d="m224.03,13.05s2.79,2.53,6.24,0h0l-16.18-11.92s-2.82-2.53-6.26,0"/>
  <path class="cls-1" d="m211.84,13.05s2.79,2.53,6.24,0h0l-16.18-11.92s-2.82-2.53-6.26,0"/>
  <path class="cls-1" d="m199.37,13.05s2.79,2.53,6.24,0h0l-16.18-11.92s-2.82-2.53-6.26,0"/>
  <path class="cls-1" d="m187.18,13.05s2.79,2.53,6.24,0h0l-16.18-11.92s-2.82-2.53-6.26,0"/>
  <path class="cls-1" d="m345.96,13.05s2.79,2.53,6.24,0h0l-16.18-11.92s-2.82-2.53-6.26,0"/>
  <path class="cls-1" d="m333.77,13.05s2.79,2.53,6.24,0h0l-16.18-11.92s-2.82-2.53-6.26,0"/>
  <path class="cls-1" d="m321.58,13.05s2.79,2.53,6.24,0h0l-16.18-11.92s-2.82-2.53-6.26,0"/>
  <path class="cls-1" d="m309.39,13.05s2.79,2.53,6.24,0h0l-16.18-11.92s-2.82-2.53-6.26,0"/>
  <path class="cls-1" d="m297.2,13.05s2.79,2.53,6.24,0h0l-16.18-11.92s-2.82-2.53-6.26,0"/>
  <path class="cls-1" d="m284.73,13.05s2.79,2.53,6.24,0h0l-16.18-11.92s-2.82-2.53-6.26,0"/>
  <path class="cls-1" d="m272.54,13.05s2.79,2.53,6.24,0h0l-16.18-11.92s-2.82-2.53-6.26,0"/>
  <path class="cls-1" d="m431.56,13.05s2.79,2.53,6.24,0h0l-16.18-11.92s-2.82-2.53-6.26,0"/>
  <path class="cls-1" d="m419.38,13.05s2.79,2.53,6.24,0h0l-16.18-11.92s-2.82-2.53-6.26,0"/>
  <path class="cls-1" d="m407.19,13.05s2.79,2.53,6.24,0h0l-16.18-11.92s-2.82-2.53-6.26,0"/>
  <path class="cls-1" d="m395,13.05s2.79,2.53,6.24,0h0l-16.18-11.92s-2.82-2.53-6.26,0"/>
  <path class="cls-1" d="m382.81,13.05s2.79,2.53,6.24,0h0l-16.18-11.92s-2.82-2.53-6.26,0"/>
  <path class="cls-1" d="m370.34,13.05s2.79,2.53,6.24,0h0l-16.18-11.92s-2.82-2.53-6.26,0"/>
  <path class="cls-1" d="m358.15,13.05s2.79,2.53,6.24,0h0l-16.18-11.92s-2.82-2.53-6.26,0"/>
  <path class="cls-1" d="m516.93,13.05s2.79,2.53,6.24,0h0l-16.18-11.92s-2.82-2.53-6.26,0"/>
  <path class="cls-1" d="m504.74,13.05s2.79,2.53,6.24,0h0l-16.18-11.92s-2.82-2.53-6.26,0"/>
  <path class="cls-1" d="m492.55,13.05s2.79,2.53,6.24,0h0l-16.18-11.92s-2.82-2.53-6.26,0"/>
  <path class="cls-1" d="m480.36,13.05s2.79,2.53,6.24,0h0l-16.18-11.92s-2.82-2.53-6.26,0"/>
  <path class="cls-1" d="m468.17,13.05s2.79,2.53,6.24,0h0l-16.18-11.92s-2.82-2.53-6.26,0"/>
  <path class="cls-1" d="m455.7,13.05s2.79,2.53,6.24,0h0l-16.18-11.92s-2.82-2.53-6.26,0"/>
  <path class="cls-1" d="m443.51,13.05s2.79,2.53,6.24,0h0l-16.18-11.92s-2.82-2.53-6.26,0"/>
  <path class="cls-1" d="m601.57,13.05s2.79,2.53,6.24,0h0l-16.18-11.92s-2.82-2.53-6.26,0"/>
  <path class="cls-1" d="m589.38,13.05s2.79,2.53,6.24,0h0l-16.18-11.92s-2.82-2.53-6.26,0"/>
  <path class="cls-1" d="m577.19,13.05s2.79,2.53,6.24,0h0l-16.18-11.92s-2.82-2.53-6.26,0"/>
  <path class="cls-1" d="m565,13.05s2.79,2.53,6.24,0h0l-16.18-11.92s-2.82-2.53-6.26,0"/>
  <path class="cls-1" d="m552.81,13.05s2.79,2.53,6.24,0h0l-16.18-11.92s-2.82-2.53-6.26,0"/>
  <path class="cls-1" d="m540.34,13.05s2.79,2.53,6.24,0h0l-16.18-11.92s-2.82-2.53-6.26,0"/>
  <path class="cls-1" d="m528.15,13.05s2.79,2.53,6.24,0h0l-16.18-11.92s-2.82-2.53-6.26,0"/>
  <path class="cls-1" d="m686.93,13.05s2.79,2.53,6.24,0h0l-16.18-11.92s-2.82-2.53-6.26,0"/>
  <path class="cls-1" d="m674.74,13.05s2.79,2.53,6.24,0h0l-16.18-11.92s-2.82-2.53-6.26,0"/>
  <path class="cls-1" d="m662.55,13.05s2.79,2.53,6.24,0h0l-16.18-11.92s-2.82-2.53-6.26,0"/>
  <path class="cls-1" d="m650.36,13.05s2.79,2.53,6.24,0h0l-16.18-11.92s-2.82-2.53-6.26,0"/>
  <path class="cls-1" d="m638.17,13.05s2.79,2.53,6.24,0h0l-16.18-11.92s-2.82-2.53-6.26,0"/>
  <path class="cls-1" d="m625.7,13.05s2.79,2.53,6.24,0h0l-16.18-11.92s-2.82-2.53-6.26,0"/>
  <path class="cls-1" d="m613.51,13.05s2.79,2.53,6.24,0h0l-16.18-11.92s-2.82-2.53-6.26,0"/>
  <path class="cls-1" d="m772.82,13.05s2.79,2.53,6.24,0h0l-16.18-11.92s-2.82-2.53-6.26,0"/>
  <path class="cls-1" d="m760.63,13.05s2.79,2.53,6.24,0h0l-16.18-11.92s-2.82-2.53-6.26,0"/>
  <path class="cls-1" d="m748.44,13.05s2.79,2.53,6.24,0h0l-16.18-11.92s-2.82-2.53-6.26,0"/>
  <path class="cls-1" d="m736.25,13.05s2.79,2.53,6.24,0h0l-16.18-11.92s-2.82-2.53-6.26,0"/>
  <path class="cls-1" d="m724.06,13.05s2.79,2.53,6.24,0h0l-16.18-11.92s-2.82-2.53-6.26,0"/>
  <path class="cls-1" d="m711.59,13.05s2.79,2.53,6.24,0h0l-16.18-11.92s-2.82-2.53-6.26,0"/>
  <path class="cls-1" d="m699.4,13.05s2.79,2.53,6.24,0h0l-16.18-11.92s-2.82-2.53-6.26,0"/>
  <path class="cls-1" d="m858.18,13.05s2.79,2.53,6.24,0h0l-16.18-11.92s-2.82-2.53-6.26,0"/>
  <path class="cls-1" d="m845.99,13.05s2.79,2.53,6.24,0h0l-16.18-11.92s-2.82-2.53-6.26,0"/>
  <path class="cls-1" d="m833.8,13.05s2.79,2.53,6.24,0h0l-16.18-11.92s-2.82-2.53-6.26,0"/>
  <path class="cls-1" d="m821.62,13.05s2.79,2.53,6.24,0h0l-16.18-11.92s-2.82-2.53-6.26,0"/>
  <path class="cls-1" d="m809.43,13.05s2.79,2.53,6.24,0h0l-16.18-11.92s-2.82-2.53-6.26,0"/>
  <path class="cls-1" d="m796.95,13.05s2.79,2.53,6.24,0h0l-16.18-11.92s-2.82-2.53-6.26,0"/>
  <path class="cls-1" d="m784.77,13.05s2.79,2.53,6.24,0h0l-16.18-11.92s-2.82-2.53-6.26,0"/>
</svg>